<svg width="1140" height="241" viewBox="0 0 1140 241" fill="none" xmlns="http://www.w3.org/2000/svg">
<path d="M0 118.987C11.1304 108.411 14.614 105.46 27.7249 97.1855C32.655 105.816 35.8601 111.338 41.3701 119.587C36.2025 127.693 32.2166 133.735 28.0671 142.388C18.7756 136.951 6.84863 128.595 0 120.137V118.987Z" fill="#064068"/>
<path d="M0 83.075C1.99037 76.4815 10.0347 56.0248 14.8063 51.5924L15.4715 51.4883C16.2184 53.8385 16.0327 55.6991 16.3278 58.0707C17.2115 65.1729 19.0527 72.6153 20.991 79.4994C15.063 82.5923 4.88362 89.0193 0 93.6911V83.075Z" fill="#064068"/>
<path d="M0 146.112C5.43276 150.413 14.8226 157.348 21.0556 160.15C18.1355 170.851 16.1317 178.164 15.7954 189.476C9.45782 181.781 2.59836 165.854 0 156.297V146.112Z" fill="#064068"/>
<path d="M50.4844 222.79C63.9349 221.461 66.9853 220.18 79.2336 217.695C83.4619 224.918 90.6325 234.749 93.91 241H92.5268C89.2849 238.537 81.4296 237.705 77.0711 236.004C67.5882 232.304 58.963 228.541 50.4844 222.79Z" fill="#064068"/>
<path d="M119.326 197.448C120.406 197.635 139.721 209.303 142.492 210.859C134.127 223.658 130.587 228.736 119.825 239.503C111.223 233.086 102.54 219.839 96.6055 210.888C103.745 206.359 111.743 202.214 119.326 197.448Z" fill="#064068"/>
<path d="M119.21 0.280273C125.502 3.05344 138.26 22.2325 142.586 28.6559C136.014 33.2275 127.563 36.5395 119.982 41.9411C119.628 41.9881 98.5385 29.8465 96.7383 28.5241C105.044 15.9283 108.616 10.7797 119.21 0.280273Z" fill="#064068"/>
<path d="M211.202 97.2354C222.135 103.151 231.283 111.337 240.48 119.544C234.987 125.5 227.768 131.434 221.185 136.137C217.971 138.241 214.746 140.329 211.511 142.4C207.196 134.505 202.549 126.797 197.582 119.295C202.818 113.33 207.456 104.279 211.202 97.2354Z" fill="#064068"/>
<path d="M33.9062 35.5445C49.0987 35.4596 55.7166 36.3654 70.806 38.8723C68.5694 48.0517 66.1085 55.2632 64.5143 64.8439C54.4849 66.7199 48.5217 68.4524 38.7269 71.5926C35.4341 60.2534 34.2569 47.3349 33.9062 35.5445Z" fill="#064068"/>
<path d="M190.778 35.8121C195.133 35.3898 200.439 35.5255 204.884 35.5261C204.666 50.7687 203.717 56.0759 200.783 71.2602C196.775 70.4146 191.756 68.7857 187.747 67.6011C183.331 66.6129 178.902 65.6816 174.461 64.8076C173.361 55.7163 170.151 47.6582 168.68 38.6393C175.72 37.3393 183.665 36.5405 190.778 35.8121Z" fill="#064068"/>
<path d="M38.6956 168.086C48.6831 171.309 54.0797 172.842 64.3814 174.655C66.525 184.77 67.7624 190.561 71.2036 200.326L64.3775 201.635C51.9366 203.961 46.3668 204.203 33.8359 203.842C34.1512 191.782 35.7807 179.793 38.6956 168.086Z" fill="#064068"/>
<path d="M199.035 168.627L200.309 168.696C203.555 173.473 204.739 197.499 204.91 203.936C195.142 204.264 186.723 203.888 177.139 201.977L168.422 200.351C171.017 191.211 172.872 184.297 174.553 174.946C183.524 172.546 189.495 171.621 199.035 168.627Z" fill="#064068"/>
<path d="M91.5999 0.0786878C92.1482 -0.0780206 92.0714 0.0137387 92.7244 0.226951C92.48 1.57122 80.5606 19.3462 78.8284 22.0359C71.985 20.2824 65.3766 18.3738 58.3601 17.559C55.8224 17.3074 53.217 16.7965 50.6992 16.3492C65.4172 7.89422 74.6246 3.50791 91.5999 0.0786878Z" fill="#064068"/>
<path d="M160.287 217.934C163.009 218.093 169.252 219.917 172.313 220.556C176.694 221.471 180.641 222.102 185.073 222.774C178.637 226.862 171.896 230.449 164.909 233.501C158.748 236.014 152.606 237.699 146.203 239.415C151.653 231.698 155.461 226.102 160.287 217.934Z" fill="#064068"/>
<path d="M146.484 0.532227C153.959 1.81762 179.602 11.3376 183.903 16.3125C183.055 17.1498 181.173 17.3323 179.829 17.6325C175.004 18.107 165.565 20.8205 160.656 22.112C155.765 14.0477 151.671 8.23295 146.484 0.532227Z" fill="#064068"/>
<path d="M223.125 55.9268C226.71 59.2123 238.967 86.9795 237.662 91.3362L236.004 90.5858C230.001 86.2759 224.711 83.1211 218.32 79.3891C220.465 70.968 221.702 64.467 223.125 55.9268Z" fill="#064068"/>
<path d="M237.654 148.086L237.931 148.441C237.874 154.678 227.351 178.259 223.591 183.324L222.801 181.87C221.676 174.445 220.044 167.631 218.352 160.311C224.871 156.148 231.227 152.452 237.654 148.086Z" fill="#064068"/>
<path d="M53.8034 135.021C56.9583 137.073 60.3282 140.224 62.975 142.873L62.8046 154.83L56.3459 153.505C52.7932 152.526 49.0392 151.668 45.4453 150.795C47.4848 145.726 51.0542 139.853 53.8034 135.021Z" fill="#064068"/>
<path d="M60.4715 85.2211C61.9326 85.2294 61.5319 85.0301 62.5711 85.7827C63.1968 88.1058 63.0431 93.5586 63.1617 96.4245L61.7723 97.854C59.4918 100.174 56.7659 103.61 53.5875 103.638L52.4161 102.103C49.6116 97.6319 47.6598 93.9789 45.8555 89.0255C50.9889 87.5285 55.2168 86.3361 60.4715 85.2211Z" fill="#064068"/>
<path d="M184.79 135.149C187.533 137.447 192.106 147.399 193.527 150.773C190.14 151.674 186.69 152.52 183.288 153.385L176.466 154.916C176.322 150.787 176.362 146.921 176.421 142.802C178.656 140.113 182.039 137.282 184.79 135.149Z" fill="#064068"/>
<path d="M149.824 46.6445C151.787 47.0526 154.839 61.0433 155.441 63.3652L143.242 63.3953C140.204 60.6425 137.784 57.8123 135.09 54.7505C140.422 50.8758 143.718 49.1452 149.824 46.6445Z" fill="#064068"/>
<path d="M176.481 84.8564C183.22 86.4007 186.766 87.1539 193.269 89.3723C191.723 93.351 190.017 96.2363 187.928 99.9166C184.048 107.587 179.442 100.395 176.078 96.0788C176.091 92.5421 176.348 88.4371 176.481 84.8564Z" fill="#064068"/>
<path d="M143.046 176.478C146.815 176.389 151.313 176.595 155.135 176.672C154.395 179.764 152.115 192.163 149.471 192.87C144.889 191.166 139.487 187.851 135.293 185.25C137.224 182.114 140.22 178.843 143.046 176.478Z" fill="#064068"/>
<path d="M88.9307 45.9355C93.4901 48.3707 100.315 51.8574 103.964 55.2038L97.2424 62.1625C94.7626 64.1159 87.8725 63.341 84.4297 63.2118C85.4918 58.0524 87.5319 51.1601 88.9307 45.9355Z" fill="#064068"/>
<path d="M84.5078 176.545L95.9267 176.485C99.1864 178.522 101.781 182.26 104.01 185.328L99.2304 188.084L89.1251 193.522C87.3111 188.401 85.5855 181.826 84.5078 176.545Z" fill="#064068"/>
<path d="M397.625 102.806V114H356.506V102.806H397.625ZM360.444 32.1V114H346.325V32.1H360.444ZM441.5 101.794V72.7687C441.5 70.5937 441.106 68.7187 440.319 67.1437C439.531 65.5687 438.331 64.35 436.719 63.4875C435.144 62.625 433.156 62.1937 430.756 62.1937C428.544 62.1937 426.631 62.5687 425.019 63.3187C423.406 64.0687 422.15 65.0812 421.25 66.3562C420.35 67.6312 419.9 69.075 419.9 70.6875H406.4C406.4 68.2875 406.981 65.9625 408.144 63.7125C409.306 61.4625 410.994 59.4562 413.206 57.6937C415.419 55.9312 418.063 54.5437 421.138 53.5312C424.213 52.5187 427.663 52.0125 431.488 52.0125C436.063 52.0125 440.113 52.7812 443.638 54.3187C447.2 55.8562 449.994 58.1812 452.019 61.2937C454.081 64.3687 455.113 68.2312 455.113 72.8812V99.9375C455.113 102.712 455.3 105.206 455.675 107.419C456.088 109.594 456.669 111.487 457.419 113.1V114H443.525C442.888 112.537 442.381 110.681 442.006 108.431C441.669 106.144 441.5 103.931 441.5 101.794ZM443.469 76.9875L443.581 85.3687H433.85C431.338 85.3687 429.125 85.6125 427.213 86.1C425.3 86.55 423.706 87.225 422.431 88.125C421.156 89.025 420.2 90.1125 419.563 91.3875C418.925 92.6625 418.606 94.1062 418.606 95.7187C418.606 97.3312 418.981 98.8125 419.731 100.162C420.481 101.475 421.569 102.506 422.994 103.256C424.456 104.006 426.219 104.381 428.281 104.381C431.056 104.381 433.475 103.819 435.538 102.694C437.638 101.531 439.288 100.125 440.488 98.475C441.688 96.7875 442.325 95.1937 442.4 93.6937L446.788 99.7125C446.338 101.25 445.569 102.9 444.481 104.662C443.394 106.425 441.969 108.112 440.206 109.725C438.481 111.3 436.4 112.594 433.963 113.606C431.563 114.619 428.788 115.125 425.638 115.125C421.663 115.125 418.119 114.338 415.006 112.762C411.894 111.15 409.456 108.994 407.694 106.294C405.931 103.556 405.05 100.462 405.05 97.0125C405.05 93.7875 405.65 90.9375 406.85 88.4625C408.088 85.95 409.888 83.85 412.25 82.1625C414.65 80.475 417.575 79.2 421.025 78.3375C424.475 77.4375 428.413 76.9875 432.838 76.9875H443.469ZM508.269 53.1375H520.588V112.312C520.588 117.788 519.425 122.438 517.1 126.263C514.775 130.088 511.531 132.994 507.369 134.981C503.206 137.006 498.388 138.019 492.913 138.019C490.588 138.019 488 137.681 485.15 137.006C482.338 136.331 479.6 135.244 476.938 133.744C474.313 132.281 472.119 130.35 470.356 127.95L476.713 119.963C478.888 122.55 481.288 124.444 483.913 125.644C486.538 126.844 489.294 127.444 492.181 127.444C495.294 127.444 497.938 126.863 500.113 125.7C502.325 124.575 504.031 122.906 505.231 120.694C506.431 118.481 507.031 115.781 507.031 112.594V66.9187L508.269 53.1375ZM466.925 84.2437V83.0625C466.925 78.45 467.488 74.25 468.613 70.4625C469.738 66.6375 471.35 63.3562 473.45 60.6187C475.55 57.8437 478.1 55.725 481.1 54.2625C484.1 52.7625 487.494 52.0125 491.281 52.0125C495.219 52.0125 498.575 52.725 501.35 54.15C504.163 55.575 506.506 57.6187 508.381 60.2812C510.256 62.9062 511.719 66.0562 512.769 69.7312C513.856 73.3687 514.663 77.4187 515.188 81.8812V85.65C514.7 90 513.875 93.975 512.713 97.575C511.55 101.175 510.013 104.287 508.1 106.912C506.188 109.537 503.825 111.562 501.013 112.987C498.238 114.413 494.956 115.125 491.169 115.125C487.456 115.125 484.1 114.356 481.1 112.819C478.138 111.281 475.588 109.125 473.45 106.35C471.35 103.575 469.738 100.312 468.613 96.5625C467.488 92.775 466.925 88.6687 466.925 84.2437ZM480.481 83.0625V84.2437C480.481 87.0187 480.744 89.6062 481.269 92.0062C481.831 94.4062 482.675 96.525 483.8 98.3625C484.963 100.162 486.425 101.587 488.188 102.637C489.988 103.65 492.106 104.156 494.544 104.156C497.731 104.156 500.338 103.481 502.363 102.131C504.425 100.781 506 98.9625 507.088 96.675C508.213 94.35 509 91.7625 509.45 88.9125V78.7312C509.225 76.5187 508.756 74.4562 508.044 72.5437C507.369 70.6312 506.45 68.9625 505.288 67.5375C504.125 66.075 502.663 64.95 500.9 64.1625C499.138 63.3375 497.056 62.925 494.656 62.925C492.219 62.925 490.1 63.45 488.3 64.5C486.5 65.55 485.019 66.9937 483.856 68.8312C482.731 70.6687 481.888 72.8062 481.325 75.2437C480.763 77.6812 480.481 80.2875 480.481 83.0625ZM532.063 84.2437V82.95C532.063 78.5625 532.7 74.4937 533.975 70.7437C535.25 66.9562 537.088 63.675 539.488 60.9C541.925 58.0875 544.888 55.9125 548.375 54.375C551.9 52.8 555.875 52.0125 560.3 52.0125C564.763 52.0125 568.738 52.8 572.225 54.375C575.75 55.9125 578.731 58.0875 581.169 60.9C583.606 63.675 585.463 66.9562 586.738 70.7437C588.013 74.4937 588.65 78.5625 588.65 82.95V84.2437C588.65 88.6312 588.013 92.7 586.738 96.45C585.463 100.2 583.606 103.481 581.169 106.294C578.731 109.069 575.769 111.244 572.281 112.819C568.794 114.356 564.838 115.125 560.413 115.125C555.95 115.125 551.956 114.356 548.431 112.819C544.944 111.244 541.981 109.069 539.544 106.294C537.106 103.481 535.25 100.2 533.975 96.45C532.7 92.7 532.063 88.6312 532.063 84.2437ZM545.619 82.95V84.2437C545.619 86.9812 545.9 89.5687 546.463 92.0062C547.025 94.4437 547.906 96.5812 549.106 98.4187C550.306 100.256 551.844 101.7 553.719 102.75C555.594 103.8 557.825 104.325 560.413 104.325C562.925 104.325 565.1 103.8 566.938 102.75C568.813 101.7 570.35 100.256 571.55 98.4187C572.75 96.5812 573.631 94.4437 574.194 92.0062C574.794 89.5687 575.094 86.9812 575.094 84.2437V82.95C575.094 80.25 574.794 77.7 574.194 75.3C573.631 72.8625 572.731 70.7062 571.494 68.8312C570.294 66.9562 568.756 65.4937 566.881 64.4437C565.044 63.3562 562.85 62.8125 560.3 62.8125C557.75 62.8125 555.538 63.3562 553.663 64.4437C551.825 65.4937 550.306 66.9562 549.106 68.8312C547.906 70.7062 547.025 72.8625 546.463 75.3C545.9 77.7 545.619 80.25 545.619 82.95ZM634.156 97.5187C634.156 96.1687 633.819 94.95 633.144 93.8625C632.469 92.7375 631.175 91.725 629.263 90.825C627.388 89.925 624.613 89.1 620.938 88.35C617.713 87.6375 614.75 86.7937 612.05 85.8187C609.388 84.8062 607.1 83.5875 605.188 82.1625C603.275 80.7375 601.794 79.05 600.744 77.1C599.694 75.15 599.169 72.9 599.169 70.35C599.169 67.875 599.713 65.5312 600.8 63.3187C601.888 61.1062 603.444 59.1562 605.469 57.4687C607.494 55.7812 609.95 54.45 612.838 53.475C615.763 52.5 619.025 52.0125 622.625 52.0125C627.725 52.0125 632.094 52.875 635.731 54.6C639.406 56.2875 642.219 58.5937 644.169 61.5187C646.119 64.4062 647.094 67.6687 647.094 71.3062H633.538C633.538 69.6937 633.125 68.1937 632.3 66.8062C631.513 65.3812 630.313 64.2375 628.7 63.375C627.088 62.475 625.063 62.025 622.625 62.025C620.3 62.025 618.369 62.4 616.831 63.15C615.331 63.8625 614.206 64.8 613.456 65.9625C612.744 67.125 612.388 68.4 612.388 69.7875C612.388 70.8 612.575 71.7187 612.95 72.5437C613.363 73.3312 614.038 74.0625 614.975 74.7375C615.913 75.375 617.188 75.975 618.8 76.5375C620.45 77.1 622.513 77.6437 624.988 78.1687C629.638 79.1437 633.631 80.4 636.969 81.9375C640.344 83.4375 642.931 85.3875 644.731 87.7875C646.531 90.15 647.431 93.15 647.431 96.7875C647.431 99.4875 646.85 101.962 645.688 104.212C644.563 106.425 642.913 108.356 640.738 110.006C638.563 111.619 635.956 112.875 632.919 113.775C629.919 114.675 626.544 115.125 622.794 115.125C617.281 115.125 612.613 114.15 608.788 112.2C604.963 110.212 602.056 107.681 600.069 104.606C598.119 101.494 597.144 98.2687 597.144 94.9312H610.25C610.4 97.4437 611.094 99.45 612.331 100.95C613.606 102.412 615.181 103.481 617.056 104.156C618.969 104.794 620.938 105.112 622.963 105.112C625.4 105.112 627.444 104.794 629.094 104.156C630.744 103.481 632 102.581 632.863 101.456C633.725 100.294 634.156 98.9812 634.156 97.5187ZM703.456 32.1V114H689.338V32.1H703.456ZM736.869 67.9312V79.125H699.856V67.9312H736.869ZM741.538 32.1V43.35H699.856V32.1H741.538ZM765.95 53.1375V114H752.338V53.1375H765.95ZM751.438 37.1625C751.438 35.1 752.113 33.3937 753.463 32.0437C754.85 30.6562 756.763 29.9625 759.2 29.9625C761.6 29.9625 763.494 30.6562 764.881 32.0437C766.269 33.3937 766.963 35.1 766.963 37.1625C766.963 39.1875 766.269 40.875 764.881 42.225C763.494 43.575 761.6 44.25 759.2 44.25C756.763 44.25 754.85 43.575 753.463 42.225C752.113 40.875 751.438 39.1875 751.438 37.1625ZM794.244 66.1312V114H780.688V53.1375H793.456L794.244 66.1312ZM791.825 81.3187L787.438 81.2625C787.475 76.95 788.075 72.9937 789.238 69.3937C790.438 65.7937 792.088 62.7 794.188 60.1125C796.325 57.525 798.875 55.5375 801.838 54.15C804.8 52.725 808.1 52.0125 811.738 52.0125C814.663 52.0125 817.306 52.425 819.669 53.25C822.069 54.0375 824.113 55.3312 825.8 57.1312C827.525 58.9312 828.838 61.275 829.738 64.1625C830.638 67.0125 831.088 70.5187 831.088 74.6812V114H817.475V74.625C817.475 71.7 817.044 69.3937 816.181 67.7062C815.356 65.9812 814.138 64.7625 812.525 64.05C810.95 63.3 808.981 62.925 806.619 62.925C804.294 62.925 802.213 63.4125 800.375 64.3875C798.538 65.3625 796.981 66.6937 795.706 68.3812C794.469 70.0687 793.513 72.0187 792.838 74.2312C792.163 76.4437 791.825 78.8062 791.825 81.3187ZM879.238 101.794V72.7687C879.238 70.5937 878.844 68.7187 878.056 67.1437C877.269 65.5687 876.069 64.35 874.456 63.4875C872.881 62.625 870.894 62.1937 868.494 62.1937C866.281 62.1937 864.369 62.5687 862.756 63.3187C861.144 64.0687 859.888 65.0812 858.988 66.3562C858.088 67.6312 857.638 69.075 857.638 70.6875H844.138C844.138 68.2875 844.719 65.9625 845.881 63.7125C847.044 61.4625 848.731 59.4562 850.944 57.6937C853.156 55.9312 855.8 54.5437 858.875 53.5312C861.95 52.5187 865.4 52.0125 869.225 52.0125C873.8 52.0125 877.85 52.7812 881.375 54.3187C884.938 55.8562 887.731 58.1812 889.756 61.2937C891.819 64.3687 892.85 68.2312 892.85 72.8812V99.9375C892.85 102.712 893.038 105.206 893.413 107.419C893.825 109.594 894.406 111.487 895.156 113.1V114H881.263C880.625 112.537 880.119 110.681 879.744 108.431C879.406 106.144 879.238 103.931 879.238 101.794ZM881.206 76.9875L881.319 85.3687H871.588C869.075 85.3687 866.863 85.6125 864.95 86.1C863.038 86.55 861.444 87.225 860.169 88.125C858.894 89.025 857.938 90.1125 857.3 91.3875C856.663 92.6625 856.344 94.1062 856.344 95.7187C856.344 97.3312 856.719 98.8125 857.469 100.162C858.219 101.475 859.306 102.506 860.731 103.256C862.194 104.006 863.956 104.381 866.019 104.381C868.794 104.381 871.213 103.819 873.275 102.694C875.375 101.531 877.025 100.125 878.225 98.475C879.425 96.7875 880.063 95.1937 880.138 93.6937L884.525 99.7125C884.075 101.25 883.306 102.9 882.219 104.662C881.131 106.425 879.706 108.112 877.944 109.725C876.219 111.3 874.138 112.594 871.7 113.606C869.3 114.619 866.525 115.125 863.375 115.125C859.4 115.125 855.856 114.338 852.744 112.762C849.631 111.15 847.194 108.994 845.431 106.294C843.669 103.556 842.788 100.462 842.788 97.0125C842.788 93.7875 843.388 90.9375 844.588 88.4625C845.825 85.95 847.625 83.85 849.988 82.1625C852.388 80.475 855.313 79.2 858.763 78.3375C862.213 77.4375 866.15 76.9875 870.575 76.9875H881.206ZM920.469 66.1312V114H906.913V53.1375H919.681L920.469 66.1312ZM918.05 81.3187L913.663 81.2625C913.7 76.95 914.3 72.9937 915.463 69.3937C916.663 65.7937 918.313 62.7 920.413 60.1125C922.55 57.525 925.1 55.5375 928.063 54.15C931.025 52.725 934.325 52.0125 937.963 52.0125C940.888 52.0125 943.531 52.425 945.894 53.25C948.294 54.0375 950.338 55.3312 952.025 57.1312C953.75 58.9312 955.063 61.275 955.963 64.1625C956.863 67.0125 957.313 70.5187 957.313 74.6812V114H943.7V74.625C943.7 71.7 943.269 69.3937 942.406 67.7062C941.581 65.9812 940.363 64.7625 938.75 64.05C937.175 63.3 935.206 62.925 932.844 62.925C930.519 62.925 928.438 63.4125 926.6 64.3875C924.763 65.3625 923.206 66.6937 921.931 68.3812C920.694 70.0687 919.738 72.0187 919.063 74.2312C918.388 76.4437 918.05 78.8062 918.05 81.3187ZM996.013 104.325C998.225 104.325 1000.21 103.894 1001.98 103.031C1003.78 102.131 1005.22 100.894 1006.31 99.3187C1007.43 97.7437 1008.05 95.925 1008.16 93.8625H1020.93C1020.86 97.8 1019.69 101.381 1017.44 104.606C1015.19 107.831 1012.21 110.4 1008.5 112.312C1004.79 114.188 1000.68 115.125 996.181 115.125C991.531 115.125 987.481 114.338 984.031 112.762C980.581 111.15 977.713 108.937 975.425 106.125C973.138 103.312 971.413 100.069 970.25 96.3937C969.125 92.7187 968.563 88.7812 968.563 84.5812V82.6125C968.563 78.4125 969.125 74.475 970.25 70.8C971.413 67.0875 973.138 63.825 975.425 61.0125C977.713 58.2 980.581 56.0062 984.031 54.4312C987.481 52.8187 991.513 52.0125 996.125 52.0125C1001 52.0125 1005.28 52.9875 1008.95 54.9375C1012.63 56.85 1015.51 59.5312 1017.61 62.9812C1019.75 66.3937 1020.86 70.3687 1020.93 74.9062H1008.16C1008.05 72.6562 1007.49 70.6312 1006.48 68.8312C1005.5 66.9937 1004.11 65.5312 1002.31 64.4437C1000.55 63.3562 998.431 62.8125 995.956 62.8125C993.219 62.8125 990.95 63.375 989.15 64.5C987.35 65.5875 985.944 67.0875 984.931 69C983.919 70.875 983.188 72.9937 982.738 75.3562C982.325 77.6812 982.119 80.1 982.119 82.6125V84.5812C982.119 87.0937 982.325 89.5312 982.738 91.8937C983.15 94.2562 983.863 96.375 984.875 98.25C985.925 100.087 987.35 101.569 989.15 102.694C990.95 103.781 993.238 104.325 996.013 104.325ZM1045.85 53.1375V114H1032.24V53.1375H1045.85ZM1031.34 37.1625C1031.34 35.1 1032.01 33.3937 1033.36 32.0437C1034.75 30.6562 1036.66 29.9625 1039.1 29.9625C1041.5 29.9625 1043.39 30.6562 1044.78 32.0437C1046.17 33.3937 1046.86 35.1 1046.86 37.1625C1046.86 39.1875 1046.17 40.875 1044.78 42.225C1043.39 43.575 1041.5 44.25 1039.1 44.25C1036.66 44.25 1034.75 43.575 1033.36 42.225C1032.01 40.875 1031.34 39.1875 1031.34 37.1625ZM1095.01 101.794V72.7687C1095.01 70.5937 1094.62 68.7187 1093.83 67.1437C1093.04 65.5687 1091.84 64.35 1090.23 63.4875C1088.66 62.625 1086.67 62.1937 1084.27 62.1937C1082.06 62.1937 1080.14 62.5687 1078.53 63.3187C1076.92 64.0687 1075.66 65.0812 1074.76 66.3562C1073.86 67.6312 1073.41 69.075 1073.41 70.6875H1059.91C1059.91 68.2875 1060.49 65.9625 1061.66 63.7125C1062.82 61.4625 1064.51 59.4562 1066.72 57.6937C1068.93 55.9312 1071.58 54.5437 1074.65 53.5312C1077.73 52.5187 1081.18 52.0125 1085 52.0125C1089.58 52.0125 1093.63 52.7812 1097.15 54.3187C1100.71 55.8562 1103.51 58.1812 1105.53 61.2937C1107.59 64.3687 1108.63 68.2312 1108.63 72.8812V99.9375C1108.63 102.712 1108.81 105.206 1109.19 107.419C1109.6 109.594 1110.18 111.487 1110.93 113.1V114H1097.04C1096.4 112.537 1095.89 110.681 1095.52 108.431C1095.18 106.144 1095.01 103.931 1095.01 101.794ZM1096.98 76.9875L1097.09 85.3687H1087.36C1084.85 85.3687 1082.64 85.6125 1080.73 86.1C1078.81 86.55 1077.22 87.225 1075.94 88.125C1074.67 89.025 1073.71 90.1125 1073.08 91.3875C1072.44 92.6625 1072.12 94.1062 1072.12 95.7187C1072.12 97.3312 1072.49 98.8125 1073.24 100.162C1073.99 101.475 1075.08 102.506 1076.51 103.256C1077.97 104.006 1079.73 104.381 1081.79 104.381C1084.57 104.381 1086.99 103.819 1089.05 102.694C1091.15 101.531 1092.8 100.125 1094 98.475C1095.2 96.7875 1095.84 95.1937 1095.91 93.6937L1100.3 99.7125C1099.85 101.25 1099.08 102.9 1097.99 104.662C1096.91 106.425 1095.48 108.112 1093.72 109.725C1091.99 111.3 1089.91 112.594 1087.48 113.606C1085.08 114.619 1082.3 115.125 1079.15 115.125C1075.18 115.125 1071.63 114.338 1068.52 112.762C1065.41 111.15 1062.97 108.994 1061.21 106.294C1059.44 103.556 1058.56 100.462 1058.56 97.0125C1058.56 93.7875 1059.16 90.9375 1060.36 88.4625C1061.6 85.95 1063.4 83.85 1065.76 82.1625C1068.16 80.475 1071.09 79.2 1074.54 78.3375C1077.99 77.4375 1081.93 76.9875 1086.35 76.9875H1096.98ZM1137.31 27.6V114H1123.7V27.6H1137.31ZM367.672 168.562V181.594C367.188 182.234 366.43 182.938 365.398 183.703C364.383 184.453 363.031 185.102 361.344 185.648C359.656 186.195 357.555 186.469 355.039 186.469C352.898 186.469 350.938 186.109 349.156 185.391C347.375 184.656 345.836 183.586 344.539 182.18C343.258 180.773 342.266 179.062 341.562 177.047C340.859 175.016 340.508 172.703 340.508 170.109V167.742C340.508 165.164 340.828 162.867 341.469 160.852C342.125 158.82 343.062 157.102 344.281 155.695C345.5 154.289 346.969 153.227 348.688 152.508C350.422 151.773 352.383 151.406 354.57 151.406C357.367 151.406 359.68 151.875 361.508 152.812C363.352 153.734 364.773 155.016 365.773 156.656C366.773 158.297 367.406 160.172 367.672 162.281H361.906C361.719 161.094 361.352 160.031 360.805 159.094C360.273 158.156 359.508 157.422 358.508 156.891C357.523 156.344 356.242 156.07 354.664 156.07C353.305 156.07 352.109 156.328 351.078 156.844C350.047 157.359 349.188 158.117 348.5 159.117C347.828 160.117 347.32 161.336 346.977 162.773C346.633 164.211 346.461 165.852 346.461 167.695V170.109C346.461 171.984 346.656 173.648 347.047 175.102C347.453 176.555 348.031 177.781 348.781 178.781C349.547 179.781 350.477 180.539 351.57 181.055C352.664 181.555 353.898 181.805 355.273 181.805C356.617 181.805 357.719 181.695 358.578 181.477C359.438 181.242 360.117 180.969 360.617 180.656C361.133 180.328 361.531 180.016 361.812 179.719V172.945H354.711V168.562H367.672ZM379.672 160.641V186H374V160.641H379.672ZM373.625 153.984C373.625 153.125 373.906 152.414 374.469 151.852C375.047 151.273 375.844 150.984 376.859 150.984C377.859 150.984 378.648 151.273 379.227 151.852C379.805 152.414 380.094 153.125 380.094 153.984C380.094 154.828 379.805 155.531 379.227 156.094C378.648 156.656 377.859 156.938 376.859 156.938C375.844 156.938 375.047 156.656 374.469 156.094C373.906 155.531 373.625 154.828 373.625 153.984ZM394.109 181.523L400.32 160.641H406.18L397.367 186H393.711L394.109 181.523ZM389.352 160.641L395.68 181.617L395.984 186H392.328L383.469 160.641H389.352ZM415.719 160.641V186H410.047V160.641H415.719ZM409.672 153.984C409.672 153.125 409.953 152.414 410.516 151.852C411.094 151.273 411.891 150.984 412.906 150.984C413.906 150.984 414.695 151.273 415.273 151.852C415.852 152.414 416.141 153.125 416.141 153.984C416.141 154.828 415.852 155.531 415.273 156.094C414.695 156.656 413.906 156.938 412.906 156.938C411.891 156.938 411.094 156.656 410.516 156.094C409.953 155.531 409.672 154.828 409.672 153.984ZM427.508 166.055V186H421.859V160.641H427.18L427.508 166.055ZM426.5 172.383L424.672 172.359C424.688 170.562 424.938 168.914 425.422 167.414C425.922 165.914 426.609 164.625 427.484 163.547C428.375 162.469 429.438 161.641 430.672 161.062C431.906 160.469 433.281 160.172 434.797 160.172C436.016 160.172 437.117 160.344 438.102 160.688C439.102 161.016 439.953 161.555 440.656 162.305C441.375 163.055 441.922 164.031 442.297 165.234C442.672 166.422 442.859 167.883 442.859 169.617V186H437.188V169.594C437.188 168.375 437.008 167.414 436.648 166.711C436.305 165.992 435.797 165.484 435.125 165.188C434.469 164.875 433.648 164.719 432.664 164.719C431.695 164.719 430.828 164.922 430.062 165.328C429.297 165.734 428.648 166.289 428.117 166.992C427.602 167.695 427.203 168.508 426.922 169.43C426.641 170.352 426.5 171.336 426.5 172.383ZM464.867 160.641H470V185.297C470 187.578 469.516 189.516 468.547 191.109C467.578 192.703 466.227 193.914 464.492 194.742C462.758 195.586 460.75 196.008 458.469 196.008C457.5 196.008 456.422 195.867 455.234 195.586C454.062 195.305 452.922 194.852 451.812 194.227C450.719 193.617 449.805 192.812 449.07 191.812L451.719 188.484C452.625 189.562 453.625 190.352 454.719 190.852C455.812 191.352 456.961 191.602 458.164 191.602C459.461 191.602 460.562 191.359 461.469 190.875C462.391 190.406 463.102 189.711 463.602 188.789C464.102 187.867 464.352 186.742 464.352 185.414V166.383L464.867 160.641ZM447.641 173.602V173.109C447.641 171.188 447.875 169.438 448.344 167.859C448.812 166.266 449.484 164.898 450.359 163.758C451.234 162.602 452.297 161.719 453.547 161.109C454.797 160.484 456.211 160.172 457.789 160.172C459.43 160.172 460.828 160.469 461.984 161.062C463.156 161.656 464.133 162.508 464.914 163.617C465.695 164.711 466.305 166.023 466.742 167.555C467.195 169.07 467.531 170.758 467.75 172.617V174.188C467.547 176 467.203 177.656 466.719 179.156C466.234 180.656 465.594 181.953 464.797 183.047C464 184.141 463.016 184.984 461.844 185.578C460.688 186.172 459.32 186.469 457.742 186.469C456.195 186.469 454.797 186.148 453.547 185.508C452.312 184.867 451.25 183.969 450.359 182.812C449.484 181.656 448.812 180.297 448.344 178.734C447.875 177.156 447.641 175.445 447.641 173.602ZM453.289 173.109V173.602C453.289 174.758 453.398 175.836 453.617 176.836C453.852 177.836 454.203 178.719 454.672 179.484C455.156 180.234 455.766 180.828 456.5 181.266C457.25 181.688 458.133 181.898 459.148 181.898C460.477 181.898 461.562 181.617 462.406 181.055C463.266 180.492 463.922 179.734 464.375 178.781C464.844 177.812 465.172 176.734 465.359 175.547V171.305C465.266 170.383 465.07 169.523 464.773 168.727C464.492 167.93 464.109 167.234 463.625 166.641C463.141 166.031 462.531 165.562 461.797 165.234C461.062 164.891 460.195 164.719 459.195 164.719C458.18 164.719 457.297 164.938 456.547 165.375C455.797 165.812 455.18 166.414 454.695 167.18C454.227 167.945 453.875 168.836 453.641 169.852C453.406 170.867 453.289 171.953 453.289 173.109ZM493.859 160.641V186H488.188V160.641H493.859ZM487.812 153.984C487.812 153.125 488.094 152.414 488.656 151.852C489.234 151.273 490.031 150.984 491.047 150.984C492.047 150.984 492.836 151.273 493.414 151.852C493.992 152.414 494.281 153.125 494.281 153.984C494.281 154.828 493.992 155.531 493.414 156.094C492.836 156.656 492.047 156.938 491.047 156.938C490.031 156.938 489.234 156.656 488.656 156.094C488.094 155.531 487.812 154.828 487.812 153.984ZM514.273 179.133C514.273 178.57 514.133 178.062 513.852 177.609C513.57 177.141 513.031 176.719 512.234 176.344C511.453 175.969 510.297 175.625 508.766 175.312C507.422 175.016 506.188 174.664 505.062 174.258C503.953 173.836 503 173.328 502.203 172.734C501.406 172.141 500.789 171.438 500.352 170.625C499.914 169.812 499.695 168.875 499.695 167.812C499.695 166.781 499.922 165.805 500.375 164.883C500.828 163.961 501.477 163.148 502.32 162.445C503.164 161.742 504.188 161.188 505.391 160.781C506.609 160.375 507.969 160.172 509.469 160.172C511.594 160.172 513.414 160.531 514.93 161.25C516.461 161.953 517.633 162.914 518.445 164.133C519.258 165.336 519.664 166.695 519.664 168.211H514.016C514.016 167.539 513.844 166.914 513.5 166.336C513.172 165.742 512.672 165.266 512 164.906C511.328 164.531 510.484 164.344 509.469 164.344C508.5 164.344 507.695 164.5 507.055 164.812C506.43 165.109 505.961 165.5 505.648 165.984C505.352 166.469 505.203 167 505.203 167.578C505.203 168 505.281 168.383 505.438 168.727C505.609 169.055 505.891 169.359 506.281 169.641C506.672 169.906 507.203 170.156 507.875 170.391C508.562 170.625 509.422 170.852 510.453 171.07C512.391 171.477 514.055 172 515.445 172.641C516.852 173.266 517.93 174.078 518.68 175.078C519.43 176.062 519.805 177.312 519.805 178.828C519.805 179.953 519.562 180.984 519.078 181.922C518.609 182.844 517.922 183.648 517.016 184.336C516.109 185.008 515.023 185.531 513.758 185.906C512.508 186.281 511.102 186.469 509.539 186.469C507.242 186.469 505.297 186.062 503.703 185.25C502.109 184.422 500.898 183.367 500.07 182.086C499.258 180.789 498.852 179.445 498.852 178.055H504.312C504.375 179.102 504.664 179.938 505.18 180.562C505.711 181.172 506.367 181.617 507.148 181.898C507.945 182.164 508.766 182.297 509.609 182.297C510.625 182.297 511.477 182.164 512.164 181.898C512.852 181.617 513.375 181.242 513.734 180.773C514.094 180.289 514.273 179.742 514.273 179.133ZM537.266 151.875H549.336C551.93 151.875 554.141 152.266 555.969 153.047C557.797 153.828 559.195 154.984 560.164 156.516C561.148 158.031 561.641 159.906 561.641 162.141C561.641 163.844 561.328 165.344 560.703 166.641C560.078 167.938 559.195 169.031 558.055 169.922C556.914 170.797 555.555 171.477 553.977 171.961L552.195 172.828H541.344L541.297 168.164H549.43C550.836 168.164 552.008 167.914 552.945 167.414C553.883 166.914 554.586 166.234 555.055 165.375C555.539 164.5 555.781 163.516 555.781 162.422C555.781 161.234 555.547 160.203 555.078 159.328C554.625 158.438 553.922 157.758 552.969 157.289C552.016 156.805 550.805 156.562 549.336 156.562H543.148V186H537.266V151.875ZM556.742 186L548.727 170.672L554.891 170.648L563.023 185.695V186H556.742ZM578.117 186.469C576.242 186.469 574.547 186.164 573.031 185.555C571.531 184.93 570.25 184.062 569.188 182.953C568.141 181.844 567.336 180.539 566.773 179.039C566.211 177.539 565.93 175.922 565.93 174.188V173.25C565.93 171.266 566.219 169.469 566.797 167.859C567.375 166.25 568.18 164.875 569.211 163.734C570.242 162.578 571.461 161.695 572.867 161.086C574.273 160.477 575.797 160.172 577.438 160.172C579.25 160.172 580.836 160.477 582.195 161.086C583.555 161.695 584.68 162.555 585.57 163.664C586.477 164.758 587.148 166.062 587.586 167.578C588.039 169.094 588.266 170.766 588.266 172.594V175.008H568.672V170.953H582.688V170.508C582.656 169.492 582.453 168.539 582.078 167.648C581.719 166.758 581.164 166.039 580.414 165.492C579.664 164.945 578.664 164.672 577.414 164.672C576.477 164.672 575.641 164.875 574.906 165.281C574.188 165.672 573.586 166.242 573.102 166.992C572.617 167.742 572.242 168.648 571.977 169.711C571.727 170.758 571.602 171.938 571.602 173.25V174.188C571.602 175.297 571.75 176.328 572.047 177.281C572.359 178.219 572.812 179.039 573.406 179.742C574 180.445 574.719 181 575.562 181.406C576.406 181.797 577.367 181.992 578.445 181.992C579.805 181.992 581.016 181.719 582.078 181.172C583.141 180.625 584.062 179.852 584.844 178.852L587.82 181.734C587.273 182.531 586.562 183.297 585.688 184.031C584.812 184.75 583.742 185.336 582.477 185.789C581.227 186.242 579.773 186.469 578.117 186.469ZM603.031 181.969C603.953 181.969 604.781 181.789 605.516 181.43C606.266 181.055 606.867 180.539 607.32 179.883C607.789 179.227 608.047 178.469 608.094 177.609H613.414C613.383 179.25 612.898 180.742 611.961 182.086C611.023 183.43 609.781 184.5 608.234 185.297C606.688 186.078 604.977 186.469 603.102 186.469C601.164 186.469 599.477 186.141 598.039 185.484C596.602 184.812 595.406 183.891 594.453 182.719C593.5 181.547 592.781 180.195 592.297 178.664C591.828 177.133 591.594 175.492 591.594 173.742V172.922C591.594 171.172 591.828 169.531 592.297 168C592.781 166.453 593.5 165.094 594.453 163.922C595.406 162.75 596.602 161.836 598.039 161.18C599.477 160.508 601.156 160.172 603.078 160.172C605.109 160.172 606.891 160.578 608.422 161.391C609.953 162.188 611.156 163.305 612.031 164.742C612.922 166.164 613.383 167.82 613.414 169.711H608.094C608.047 168.773 607.812 167.93 607.391 167.18C606.984 166.414 606.406 165.805 605.656 165.352C604.922 164.898 604.039 164.672 603.008 164.672C601.867 164.672 600.922 164.906 600.172 165.375C599.422 165.828 598.836 166.453 598.414 167.25C597.992 168.031 597.688 168.914 597.5 169.898C597.328 170.867 597.242 171.875 597.242 172.922V173.742C597.242 174.789 597.328 175.805 597.5 176.789C597.672 177.773 597.969 178.656 598.391 179.438C598.828 180.203 599.422 180.82 600.172 181.289C600.922 181.742 601.875 181.969 603.031 181.969ZM628.93 186.469C627.055 186.469 625.359 186.164 623.844 185.555C622.344 184.93 621.062 184.062 620 182.953C618.953 181.844 618.148 180.539 617.586 179.039C617.023 177.539 616.742 175.922 616.742 174.188V173.25C616.742 171.266 617.031 169.469 617.609 167.859C618.188 166.25 618.992 164.875 620.023 163.734C621.055 162.578 622.273 161.695 623.68 161.086C625.086 160.477 626.609 160.172 628.25 160.172C630.062 160.172 631.648 160.477 633.008 161.086C634.367 161.695 635.492 162.555 636.383 163.664C637.289 164.758 637.961 166.062 638.398 167.578C638.852 169.094 639.078 170.766 639.078 172.594V175.008H619.484V170.953H633.5V170.508C633.469 169.492 633.266 168.539 632.891 167.648C632.531 166.758 631.977 166.039 631.227 165.492C630.477 164.945 629.477 164.672 628.227 164.672C627.289 164.672 626.453 164.875 625.719 165.281C625 165.672 624.398 166.242 623.914 166.992C623.43 167.742 623.055 168.648 622.789 169.711C622.539 170.758 622.414 171.938 622.414 173.25V174.188C622.414 175.297 622.562 176.328 622.859 177.281C623.172 178.219 623.625 179.039 624.219 179.742C624.812 180.445 625.531 181 626.375 181.406C627.219 181.797 628.18 181.992 629.258 181.992C630.617 181.992 631.828 181.719 632.891 181.172C633.953 180.625 634.875 179.852 635.656 178.852L638.633 181.734C638.086 182.531 637.375 183.297 636.5 184.031C635.625 184.75 634.555 185.336 633.289 185.789C632.039 186.242 630.586 186.469 628.93 186.469ZM649.531 160.641V186H643.859V160.641H649.531ZM643.484 153.984C643.484 153.125 643.766 152.414 644.328 151.852C644.906 151.273 645.703 150.984 646.719 150.984C647.719 150.984 648.508 151.273 649.086 151.852C649.664 152.414 649.953 153.125 649.953 153.984C649.953 154.828 649.664 155.531 649.086 156.094C648.508 156.656 647.719 156.938 646.719 156.938C645.703 156.938 644.906 156.656 644.328 156.094C643.766 155.531 643.484 154.828 643.484 153.984ZM663.969 181.523L670.18 160.641H676.039L667.227 186H663.57L663.969 181.523ZM659.211 160.641L665.539 181.617L665.844 186H662.188L653.328 160.641H659.211ZM685.578 160.641V186H679.906V160.641H685.578ZM679.531 153.984C679.531 153.125 679.812 152.414 680.375 151.852C680.953 151.273 681.75 150.984 682.766 150.984C683.766 150.984 684.555 151.273 685.133 151.852C685.711 152.414 686 153.125 686 153.984C686 154.828 685.711 155.531 685.133 156.094C684.555 156.656 683.766 156.938 682.766 156.938C681.75 156.938 680.953 156.656 680.375 156.094C679.812 155.531 679.531 154.828 679.531 153.984ZM697.367 166.055V186H691.719V160.641H697.039L697.367 166.055ZM696.359 172.383L694.531 172.359C694.547 170.562 694.797 168.914 695.281 167.414C695.781 165.914 696.469 164.625 697.344 163.547C698.234 162.469 699.297 161.641 700.531 161.062C701.766 160.469 703.141 160.172 704.656 160.172C705.875 160.172 706.977 160.344 707.961 160.688C708.961 161.016 709.812 161.555 710.516 162.305C711.234 163.055 711.781 164.031 712.156 165.234C712.531 166.422 712.719 167.883 712.719 169.617V186H707.047V169.594C707.047 168.375 706.867 167.414 706.508 166.711C706.164 165.992 705.656 165.484 704.984 165.188C704.328 164.875 703.508 164.719 702.523 164.719C701.555 164.719 700.688 164.922 699.922 165.328C699.156 165.734 698.508 166.289 697.977 166.992C697.461 167.695 697.062 168.508 696.781 169.43C696.5 170.352 696.359 171.336 696.359 172.383ZM734.727 160.641H739.859V185.297C739.859 187.578 739.375 189.516 738.406 191.109C737.438 192.703 736.086 193.914 734.352 194.742C732.617 195.586 730.609 196.008 728.328 196.008C727.359 196.008 726.281 195.867 725.094 195.586C723.922 195.305 722.781 194.852 721.672 194.227C720.578 193.617 719.664 192.812 718.93 191.812L721.578 188.484C722.484 189.562 723.484 190.352 724.578 190.852C725.672 191.352 726.82 191.602 728.023 191.602C729.32 191.602 730.422 191.359 731.328 190.875C732.25 190.406 732.961 189.711 733.461 188.789C733.961 187.867 734.211 186.742 734.211 185.414V166.383L734.727 160.641ZM717.5 173.602V173.109C717.5 171.188 717.734 169.438 718.203 167.859C718.672 166.266 719.344 164.898 720.219 163.758C721.094 162.602 722.156 161.719 723.406 161.109C724.656 160.484 726.07 160.172 727.648 160.172C729.289 160.172 730.688 160.469 731.844 161.062C733.016 161.656 733.992 162.508 734.773 163.617C735.555 164.711 736.164 166.023 736.602 167.555C737.055 169.07 737.391 170.758 737.609 172.617V174.188C737.406 176 737.062 177.656 736.578 179.156C736.094 180.656 735.453 181.953 734.656 183.047C733.859 184.141 732.875 184.984 731.703 185.578C730.547 186.172 729.18 186.469 727.602 186.469C726.055 186.469 724.656 186.148 723.406 185.508C722.172 184.867 721.109 183.969 720.219 182.812C719.344 181.656 718.672 180.297 718.203 178.734C717.734 177.156 717.5 175.445 717.5 173.602ZM723.148 173.109V173.602C723.148 174.758 723.258 175.836 723.477 176.836C723.711 177.836 724.062 178.719 724.531 179.484C725.016 180.234 725.625 180.828 726.359 181.266C727.109 181.688 727.992 181.898 729.008 181.898C730.336 181.898 731.422 181.617 732.266 181.055C733.125 180.492 733.781 179.734 734.234 178.781C734.703 177.812 735.031 176.734 735.219 175.547V171.305C735.125 170.383 734.93 169.523 734.633 168.727C734.352 167.93 733.969 167.234 733.484 166.641C733 166.031 732.391 165.562 731.656 165.234C730.922 164.891 730.055 164.719 729.055 164.719C728.039 164.719 727.156 164.938 726.406 165.375C725.656 165.812 725.039 166.414 724.555 167.18C724.086 167.945 723.734 168.836 723.5 169.852C723.266 170.867 723.148 171.953 723.148 173.109Z" fill="#064068"/>
</svg>
