<svg width="110" height="110" viewBox="0 0 110 110" fill="none" xmlns="http://www.w3.org/2000/svg">
<path d="M5 54.3723C9.63765 49.9841 11.0892 48.7596 16.5521 45.3262C18.6063 48.9075 19.9417 51.1987 22.2376 54.6215C20.0844 57.985 18.4236 60.492 16.6946 64.0823C12.8232 61.8262 7.85359 58.359 5 54.8495V54.3723Z" fill="#064068"/>
<path d="M5 39.4708C5.82932 36.7349 9.18111 28.2466 11.1693 26.4075L11.4465 26.3643C11.7577 27.3394 11.6803 28.1115 11.8033 29.0955C12.1715 32.0425 12.9386 35.1307 13.7463 37.9871C11.2762 39.2705 7.03484 41.9373 5 43.8758V39.4708Z" fill="#064068"/>
<path d="M5 65.6279C7.26365 67.4126 11.1761 70.29 13.7732 71.4529C12.5564 75.893 11.7216 78.9273 11.5814 83.6213C8.94076 80.4281 6.08265 73.8194 5 69.8539V65.6279Z" fill="#064068"/>
<path d="M26.0352 97.4441C31.6396 96.8925 32.9105 96.3612 38.014 95.3301C39.7758 98.327 42.7635 102.406 44.1292 105H43.5528C42.202 103.978 38.929 103.633 37.113 102.927C33.1617 101.392 29.5679 99.8303 26.0352 97.4441Z" fill="#064068"/>
<path d="M54.721 86.9287C55.1709 87.0061 63.2188 91.8477 64.3731 92.4935C60.8881 97.804 59.413 99.9114 54.9288 104.379C51.3445 101.716 47.7266 96.2197 45.2539 92.5053C48.2287 90.6262 51.5613 88.9062 54.721 86.9287Z" fill="#064068"/>
<path d="M54.672 5.11621C57.2935 6.2669 62.6092 14.225 64.4118 16.8903C61.6736 18.7873 58.1524 20.1616 54.9934 22.4029C54.8462 22.4224 46.0587 17.3844 45.3086 16.8357C48.7693 11.6092 50.2576 9.47283 54.672 5.11621Z" fill="#064068"/>
<path d="M92.9992 45.3467C97.5546 47.8014 101.366 51.1982 105.198 54.6032C102.909 57.0746 99.9015 59.537 97.1589 61.4886C95.8195 62.3616 94.4759 63.2278 93.1281 64.0873C91.3302 60.8114 89.3938 57.6128 87.3242 54.5002C89.506 52.0251 91.4383 48.2692 92.9992 45.3467Z" fill="#064068"/>
<path d="M19.1289 19.7483C25.4591 19.7131 28.2166 20.089 34.5038 21.1292C33.5719 24.9381 32.5465 27.9304 31.8823 31.9058C27.7034 32.6842 25.2187 33.4031 21.1375 34.7061C19.7655 30.001 19.275 24.6406 19.1289 19.7483Z" fill="#064068"/>
<path d="M84.4888 19.8599C86.3037 19.6847 88.5142 19.741 90.3664 19.7412C90.2758 26.0659 89.8803 28.2681 88.6578 34.5686C86.9876 34.2178 84.8963 33.5419 83.2261 33.0503C81.386 32.6403 79.5405 32.2539 77.6901 31.8912C77.2318 28.1189 75.8945 24.7753 75.2812 21.033C78.2147 20.4936 81.5251 20.1621 84.4888 19.8599Z" fill="#064068"/>
<path d="M21.1225 74.7451C25.284 76.0823 27.5326 76.7185 31.8249 77.4708C32.7181 81.6679 33.2337 84.0707 34.6675 88.1228L31.8233 88.6661C26.6396 89.6309 24.3189 89.7314 19.0977 89.5817C19.229 84.5775 19.908 79.6026 21.1225 74.7451Z" fill="#064068"/>
<path d="M87.9312 74.9697L88.4621 74.9984C89.8145 76.9807 90.3081 86.9499 90.3793 89.6209C86.3093 89.7569 82.8013 89.601 78.8081 88.8078L75.1758 88.1333C76.2571 84.3408 77.0301 81.4717 77.7303 77.5917C81.4684 76.5957 83.9561 76.2122 87.9312 74.9697Z" fill="#064068"/>
<path d="M43.167 5.03265C43.3954 4.96763 43.3634 5.0057 43.6355 5.09417C43.5337 5.65196 38.5673 13.0275 37.8455 14.1435C34.9941 13.4159 32.2406 12.624 29.3171 12.2859C28.2597 12.1815 27.1741 11.9695 26.125 11.7839C32.2575 8.27561 36.0939 6.45557 43.167 5.03265Z" fill="#064068"/>
<path d="M71.7864 95.4287C72.9205 95.4948 75.5219 96.2515 76.797 96.5167C78.6226 96.8964 80.267 97.1582 82.1137 97.4372C79.432 99.1336 76.6233 100.622 73.7121 101.888C71.1448 102.931 68.5857 103.63 65.918 104.342C68.1886 101.14 69.7753 98.8181 71.7864 95.4287Z" fill="#064068"/>
<path d="M66.0352 5.2207C69.1496 5.75406 79.834 9.70427 81.6264 11.7686C81.273 12.116 80.4888 12.1917 79.9287 12.3163C77.9183 12.5132 73.9856 13.6391 71.9399 14.175C69.9019 10.8288 68.1961 8.41603 66.0352 5.2207Z" fill="#064068"/>
<path d="M97.9708 28.2061C99.4645 29.5694 104.571 41.091 104.028 42.8988L103.337 42.5874C100.836 40.7991 98.6316 39.49 95.9688 37.9414C96.8624 34.4472 97.378 31.7497 97.9708 28.2061Z" fill="#064068"/>
<path d="M104.023 66.4463L104.138 66.5937C104.115 69.1815 99.7304 78.9661 98.1634 81.0679L97.8343 80.4647C97.3656 77.3838 96.6858 74.5562 95.9805 71.5189C98.6971 69.7915 101.345 68.2577 104.023 66.4463Z" fill="#064068"/>
<path d="M27.4201 61.0254C28.7346 61.8771 30.1387 63.1845 31.2415 64.2838L31.1706 69.245L28.4794 68.6952C26.9991 68.2892 25.4349 67.9332 23.9375 67.5708C24.7873 65.4676 26.2746 63.0306 27.4201 61.0254Z" fill="#064068"/>
<path d="M30.1955 40.361C30.8043 40.3644 30.6373 40.2817 31.0703 40.594C31.331 41.558 31.267 43.8205 31.3164 45.0097L30.7375 45.6029C29.7873 46.5654 28.6515 47.9911 27.3271 48.0026L26.8391 47.3658C25.6705 45.5107 24.8573 43.9949 24.1055 41.9396C26.2444 41.3184 28.006 40.8236 30.1955 40.361Z" fill="#064068"/>
<path d="M81.9938 61.0781C83.1368 62.0317 85.0424 66.1609 85.6345 67.5609C84.2229 67.9347 82.7854 68.2858 81.3681 68.645L78.5255 69.2802C78.4654 67.5669 78.4821 65.9627 78.5069 64.2536C79.4379 63.1379 80.8476 61.9628 81.9938 61.0781Z" fill="#064068"/>
<path d="M67.4283 24.3545C68.2461 24.5238 69.5178 30.3291 69.7688 31.2925L64.686 31.305C63.4198 30.1628 62.4116 28.9884 61.2891 27.7179C63.5108 26.1102 64.8843 25.3921 67.4283 24.3545Z" fill="#064068"/>
<path d="M78.5351 40.21C81.3431 40.8507 82.8203 41.1633 85.53 42.0838C84.8857 43.7347 84.175 44.9319 83.3046 46.459C81.688 49.6418 79.7688 46.6574 78.3672 44.8665C78.3728 43.399 78.4797 41.6957 78.5351 40.21Z" fill="#064068"/>
<path d="M64.6017 78.2279C66.1719 78.1907 68.0459 78.2764 69.6386 78.3085C69.3304 79.5912 68.3801 84.7361 67.2787 85.0295C65.3694 84.3227 63.1187 82.9471 61.3711 81.8677C62.1757 80.5663 63.4242 79.2092 64.6017 78.2279Z" fill="#064068"/>
<path d="M42.0551 24.0605C43.9549 25.071 46.7986 26.5177 48.3189 27.9063L45.5183 30.7937C44.4851 31.6043 41.6142 31.2827 40.1797 31.2291C40.6222 29.0883 41.4723 26.2284 42.0551 24.0605Z" fill="#064068"/>
<path d="M40.2109 78.2552L44.9688 78.2305C46.327 79.0754 47.4081 80.6266 48.337 81.8995L46.3453 83.0432L42.1348 85.2995C41.379 83.1746 40.66 80.4466 40.2109 78.2552Z" fill="#064068"/>
</svg>
