<svg width="209" height="44" viewBox="0 0 209 44" fill="none" xmlns="http://www.w3.org/2000/svg" class="Lagos Financial Logo">
<path d="M0 21.7235C2.0321 19.7927 2.66811 19.2539 5.06181 17.7432C5.96192 19.3189 6.54707 20.3271 7.55305 21.8331C6.60958 23.313 5.88187 24.4161 5.12428 25.9958C3.42791 25.0032 1.25037 23.4776 0 21.9334V21.7235Z" fill="#064068"/>
<path d="M0 15.1673C0.363387 13.9635 1.83206 10.2286 2.70323 9.41941L2.82467 9.40039C2.96103 9.82947 2.92713 10.1692 2.98101 10.6022C3.14235 11.8988 3.47851 13.2576 3.83239 14.5144C2.75009 15.0791 0.891616 16.2525 0 17.1055V15.1673Z" fill="#064068"/>
<path d="M0 26.6763C0.991873 27.4615 2.7062 28.7276 3.84418 29.2392C3.31104 31.1929 2.94521 32.528 2.88381 34.5933C1.72674 33.1883 0.474389 30.2805 0 28.5357V26.6763Z" fill="#064068"/>
<path d="M9.21875 40.6753C11.6745 40.4326 12.2314 40.1988 14.4676 39.7451C15.2395 41.0637 16.5487 42.8587 17.1471 43.9999H16.8945C16.3027 43.5502 14.8685 43.3983 14.0728 43.0878C12.3414 42.4123 10.7667 41.7252 9.21875 40.6753Z" fill="#064068"/>
<path d="M21.7849 36.0488C21.9821 36.0829 25.5085 38.2132 26.0143 38.4974C24.4872 40.834 23.8409 41.7612 21.876 43.7269C20.3055 42.5553 18.7202 40.1369 17.6367 38.5025C18.9402 37.6757 20.4005 36.9189 21.7849 36.0488Z" fill="#064068"/>
<path d="M21.763 0.0512695C22.9116 0.557574 25.2408 4.05914 26.0307 5.23188C24.8309 6.06653 23.288 6.67122 21.9038 7.6574C21.8393 7.66598 17.9888 5.44925 17.6602 5.20783C19.1765 2.90817 19.8287 1.96818 21.763 0.0512695Z" fill="#064068"/>
<path d="M38.5608 17.7524C40.5569 18.8325 42.227 20.3271 43.9061 21.8253C42.9033 22.9127 41.5853 23.9962 40.3835 24.8549C39.7966 25.239 39.2079 25.6201 38.6173 25.9983C37.8295 24.5569 36.981 23.1495 36.0742 21.78C37.0302 20.691 37.8769 19.0383 38.5608 17.7524Z" fill="#064068"/>
<path d="M6.19141 6.48927C8.96513 6.47378 10.1734 6.63914 12.9283 7.09684C12.52 8.77274 12.0707 10.0894 11.7796 11.8385C9.94851 12.1811 8.85978 12.4973 7.07153 13.0707C6.47034 11.0004 6.25543 8.64188 6.19141 6.48927Z" fill="#064068"/>
<path d="M34.8314 6.53803C35.6266 6.46093 36.5952 6.4857 37.4068 6.48581C37.3671 9.26868 37.1938 10.2376 36.6581 13.0099C35.9263 12.8555 35.0099 12.5581 34.2781 12.3418C33.4718 12.1614 32.6632 11.9914 31.8524 11.8318C31.6516 10.172 31.0656 8.70079 30.7969 7.05419C32.0823 6.81686 33.5328 6.67101 34.8314 6.53803Z" fill="#064068"/>
<path d="M7.06692 30.688C8.89037 31.2764 9.87565 31.5563 11.7564 31.8873C12.1478 33.734 12.3737 34.7913 13.002 36.5742L11.7557 36.8132C9.48437 37.2377 8.46748 37.282 6.17969 37.2161C6.23725 35.0142 6.53475 32.8253 7.06692 30.688Z" fill="#064068"/>
<path d="M36.3391 30.7866L36.5717 30.7992C37.1643 31.6715 37.3806 36.0579 37.4118 37.2331C35.6284 37.293 34.0913 37.2244 32.3416 36.8754L30.75 36.5786C31.2238 34.9099 31.5625 33.6475 31.8693 31.9403C33.5073 31.502 34.5973 31.3333 36.3391 30.7866Z" fill="#064068"/>
<path d="M16.7252 0.0143662C16.8253 -0.0142444 16.8112 0.00250832 16.9305 0.0414351C16.8858 0.286862 14.7097 3.53209 14.3934 4.02315C13.144 3.70301 11.9375 3.35456 10.6565 3.2058C10.1932 3.15986 9.71748 3.06658 9.25781 2.98492C11.9449 1.44127 13.6259 0.640449 16.7252 0.0143662Z" fill="#064068"/>
<path d="M29.2628 39.7886C29.7597 39.8176 30.8996 40.1506 31.4583 40.2673C32.2582 40.4344 32.9788 40.5495 33.7879 40.6723C32.6129 41.4187 31.3822 42.0736 30.1066 42.6308C28.9817 43.0896 27.8603 43.3972 26.6914 43.7105C27.6863 42.3015 28.3816 41.2799 29.2628 39.7886Z" fill="#064068"/>
<path d="M26.7422 0.097168C28.1068 0.331846 32.7885 2.06994 33.5739 2.97822C33.419 3.13108 33.0754 3.1644 32.83 3.21921C31.9491 3.30585 30.2259 3.80124 29.3295 4.03705C28.4365 2.56472 27.689 1.50311 26.7422 0.097168Z" fill="#064068"/>
<path d="M40.7366 10.2109C41.3911 10.8108 43.6288 15.8803 43.3907 16.6757L43.0879 16.5387C41.992 15.7519 41.0262 15.1759 39.8594 14.4945C40.2509 12.9571 40.4769 11.7701 40.7366 10.2109Z" fill="#064068"/>
<path d="M43.3913 27.0366L43.4418 27.1015C43.4315 28.2401 41.5103 32.5453 40.8237 33.4701L40.6795 33.2047C40.4741 31.8491 40.1762 30.605 39.8672 29.2686C41.0575 28.5085 42.2178 27.8337 43.3913 27.0366Z" fill="#064068"/>
<path d="M9.82284 24.6509C10.3988 25.0256 11.0141 25.6009 11.4973 26.0846L11.4662 28.2675L10.287 28.0256C9.6384 27.8469 8.95301 27.6903 8.29688 27.5309C8.66924 26.6055 9.32091 25.5332 9.82284 24.6509Z" fill="#064068"/>
<path d="M11.0396 15.5589C11.3063 15.5605 11.2332 15.5241 11.4229 15.6615C11.5371 16.0856 11.5091 17.0811 11.5307 17.6044L11.2771 17.8654C10.8607 18.2889 10.363 18.9162 9.78275 18.9213L9.56888 18.6411C9.05685 17.8248 8.70051 17.1579 8.37109 16.2535C9.30832 15.9802 10.0802 15.7625 11.0396 15.5589Z" fill="#064068"/>
<path d="M33.737 24.6748C34.2378 25.0944 35.0728 26.9112 35.3322 27.5272C34.7137 27.6917 34.0838 27.8462 33.4628 28.0042L32.2172 28.2837C32.1909 27.5299 32.1982 26.824 32.2091 26.072C32.617 25.5811 33.2347 25.0641 33.737 24.6748Z" fill="#064068"/>
<path d="M27.3541 8.51611C27.7125 8.59062 28.2697 11.1449 28.3797 11.5689L26.1525 11.5743C25.5977 11.0718 25.1559 10.555 24.6641 9.99603C25.6376 9.28862 26.2394 8.97266 27.3541 8.51611Z" fill="#064068"/>
<path d="M32.222 15.4927C33.4524 15.7746 34.0997 15.9121 35.287 16.3172C35.0047 17.0435 34.6933 17.5703 34.3119 18.2422C33.6035 19.6427 32.7626 18.3296 32.1484 17.5416C32.1509 16.8959 32.1977 16.1464 32.222 15.4927Z" fill="#064068"/>
<path d="M26.1148 32.2199C26.8028 32.2035 27.624 32.2412 28.3218 32.2553C28.1868 32.8197 27.7704 35.0835 27.2878 35.2125C26.4512 34.9015 25.465 34.2963 24.6992 33.8213C25.0518 33.2487 25.5988 32.6516 26.1148 32.2199Z" fill="#064068"/>
<path d="M16.2358 8.38672C17.0683 8.83132 18.3143 9.46789 18.9805 10.0789L17.7533 11.3493C17.3006 11.706 16.0426 11.5645 15.4141 11.5409C15.608 10.5989 15.9804 9.34059 16.2358 8.38672Z" fill="#064068"/>
<path d="M15.4297 32.2321L17.5145 32.2212C18.1096 32.593 18.5833 33.2755 18.9903 33.8356L18.1176 34.3388L16.2727 35.3316C15.9415 34.3966 15.6264 33.1963 15.4297 32.2321Z" fill="#064068"/>
<path d="M72.5968 19.0764V21.1201H65.0897V19.0764H72.5968ZM65.8086 6.16742V21.1201H63.2309V6.16742H65.8086ZM80.6072 18.8916V13.5924C80.6072 13.1953 80.5353 12.853 80.3915 12.5654C80.2478 12.2779 80.0287 12.0554 79.7343 11.8979C79.4467 11.7404 79.0839 11.6617 78.6457 11.6617C78.2417 11.6617 77.8926 11.7302 77.5982 11.8671C77.3038 12.004 77.0744 12.1889 76.9101 12.4217C76.7458 12.6545 76.6636 12.918 76.6636 13.2124H74.1989C74.1989 12.7743 74.305 12.3498 74.5173 11.939C74.7295 11.5282 75.0376 11.1619 75.4415 10.8401C75.8455 10.5184 76.3282 10.265 76.8896 10.0802C77.451 9.89533 78.0809 9.8029 78.7792 9.8029C79.6145 9.8029 80.3539 9.94325 80.9975 10.224C81.6479 10.5047 82.1579 10.9291 82.5276 11.4974C82.9042 12.0588 83.0925 12.764 83.0925 13.613V18.5527C83.0925 19.0593 83.1267 19.5146 83.1952 19.9186C83.2705 20.3157 83.3766 20.6614 83.5135 20.9558V21.1201H80.9769C80.8605 20.8531 80.7681 20.5142 80.6996 20.1034C80.638 19.6858 80.6072 19.2818 80.6072 18.8916ZM80.9666 14.3626L80.9872 15.8928H79.2105C78.7518 15.8928 78.3479 15.9373 77.9987 16.0263C77.6495 16.1085 77.3586 16.2317 77.1258 16.3961C76.893 16.5604 76.7184 16.7589 76.602 16.9917C76.4856 17.2245 76.4274 17.4881 76.4274 17.7825C76.4274 18.0769 76.4959 18.3473 76.6328 18.5938C76.7698 18.8334 76.9683 19.0217 77.2285 19.1586C77.4955 19.2955 77.8173 19.364 78.1938 19.364C78.7005 19.364 79.1421 19.2613 79.5186 19.0559C79.902 18.8437 80.2033 18.5869 80.4223 18.2857C80.6414 17.9776 80.7578 17.6866 80.7715 17.4128L81.5726 18.5116C81.4904 18.7923 81.35 19.0936 81.1515 19.4153C80.9529 19.7371 80.6928 20.0452 80.371 20.3396C80.0561 20.6272 79.6761 20.8634 79.2311 21.0482C78.7929 21.2331 78.2862 21.3255 77.7111 21.3255C76.9854 21.3255 76.3384 21.1817 75.7702 20.8942C75.2019 20.5998 74.7569 20.2061 74.4351 19.7132C74.1133 19.2134 73.9524 18.6485 73.9524 18.0187C73.9524 17.4299 74.062 16.9095 74.2811 16.4577C74.507 15.999 74.8356 15.6156 75.267 15.3075C75.7051 14.9994 76.2392 14.7666 76.869 14.6091C77.4989 14.4448 78.2178 14.3626 79.0257 14.3626H80.9666ZM92.7973 10.0083H95.0464V20.812C95.0464 21.8116 94.8342 22.6606 94.4097 23.3589C93.9852 24.0573 93.393 24.5879 92.633 24.9507C91.8731 25.3204 90.9933 25.5053 89.9937 25.5053C89.5692 25.5053 89.0968 25.4437 88.5765 25.3204C88.063 25.1972 87.5632 24.9986 87.0771 24.7248C86.5979 24.4578 86.1973 24.1052 85.8756 23.667L87.036 22.2087C87.4331 22.6811 87.8713 23.0269 88.3506 23.2459C88.8298 23.465 89.333 23.5746 89.8602 23.5746C90.4285 23.5746 90.9111 23.4685 91.3082 23.2562C91.7122 23.0508 92.0237 22.7462 92.2428 22.3422C92.4619 21.9383 92.5714 21.4453 92.5714 20.8634V12.5244L92.7973 10.0083ZM85.2491 15.6874V15.4718C85.2491 14.6297 85.3518 13.8629 85.5572 13.1714C85.7626 12.473 86.057 11.874 86.4404 11.3742C86.8238 10.8675 87.2894 10.4807 87.8371 10.2137C88.3848 9.93983 89.0044 9.8029 89.6959 9.8029C90.4148 9.8029 91.0275 9.93298 91.5342 10.1931C92.0477 10.4533 92.4756 10.8264 92.8179 11.3125C93.1602 11.7918 93.4272 12.3669 93.6189 13.0379C93.8175 13.702 93.9647 14.4414 94.0605 15.2561V15.9442C93.9715 16.7384 93.8209 17.4641 93.6087 18.1214C93.3964 18.7786 93.1157 19.3469 92.7665 19.8261C92.4174 20.3054 91.986 20.6751 91.4726 20.9353C90.9659 21.1954 90.3668 21.3255 89.6754 21.3255C88.9976 21.3255 88.3848 21.1852 87.8371 20.9045C87.2962 20.6237 86.8306 20.2301 86.4404 19.7234C86.057 19.2168 85.7626 18.6212 85.5572 17.9365C85.3518 17.245 85.2491 16.4953 85.2491 15.6874ZM87.7241 15.4718V15.6874C87.7241 16.1941 87.772 16.6665 87.8679 17.1047C87.9706 17.5428 88.1246 17.9297 88.33 18.2651C88.5423 18.5938 88.8093 18.8539 89.1311 19.0456C89.4597 19.2305 89.8465 19.3229 90.2915 19.3229C90.8735 19.3229 91.3493 19.1997 91.719 18.9532C92.0956 18.7067 92.3831 18.3747 92.5817 17.957C92.7871 17.5326 92.9309 17.0602 93.013 16.5398V14.681C92.9719 14.2771 92.8864 13.9005 92.7563 13.5513C92.633 13.2022 92.4653 12.8975 92.2531 12.6373C92.0408 12.3703 91.7738 12.1649 91.452 12.0212C91.1302 11.8705 90.7503 11.7952 90.3121 11.7952C89.8671 11.7952 89.4802 11.8911 89.1516 12.0828C88.823 12.2745 88.5525 12.5381 88.3403 12.8735C88.1349 13.209 87.9809 13.5993 87.8782 14.0443C87.7755 14.4893 87.7241 14.9651 87.7241 15.4718ZM97.1414 15.6874V15.4512C97.1414 14.6502 97.2578 13.9074 97.4906 13.2227C97.7234 12.5312 98.0589 11.9322 98.497 11.4255C98.9421 10.912 99.4829 10.5149 100.12 10.2342C100.763 9.94667 101.489 9.8029 102.297 9.8029C103.112 9.8029 103.837 9.94667 104.474 10.2342C105.118 10.5149 105.662 10.912 106.107 11.4255C106.552 11.9322 106.891 12.5312 107.124 13.2227C107.356 13.9074 107.473 14.6502 107.473 15.4512V15.6874C107.473 16.4885 107.356 17.2313 107.124 17.916C106.891 18.6006 106.552 19.1997 106.107 19.7132C105.662 20.2198 105.121 20.6169 104.484 20.9045C103.848 21.1852 103.125 21.3255 102.317 21.3255C101.503 21.3255 100.773 21.1852 100.13 20.9045C99.4932 20.6169 98.9523 20.2198 98.5073 19.7132C98.0623 19.1997 97.7234 18.6006 97.4906 17.916C97.2578 17.2313 97.1414 16.4885 97.1414 15.6874ZM99.6164 15.4512V15.6874C99.6164 16.1872 99.6678 16.6596 99.7705 17.1047C99.8732 17.5497 100.034 17.9399 100.253 18.2754C100.472 18.6109 100.753 18.8745 101.095 19.0662C101.438 19.2579 101.845 19.3537 102.317 19.3537C102.776 19.3537 103.173 19.2579 103.509 19.0662C103.851 18.8745 104.132 18.6109 104.351 18.2754C104.57 17.9399 104.731 17.5497 104.833 17.1047C104.943 16.6596 104.998 16.1872 104.998 15.6874V15.4512C104.998 14.9583 104.943 14.4927 104.833 14.0546C104.731 13.6095 104.566 13.2159 104.341 12.8735C104.121 12.5312 103.841 12.2642 103.498 12.0725C103.163 11.874 102.762 11.7747 102.297 11.7747C101.831 11.7747 101.427 11.874 101.085 12.0725C100.75 12.2642 100.472 12.5312 100.253 12.8735C100.034 13.2159 99.8732 13.6095 99.7705 14.0546C99.6678 14.4927 99.6164 14.9583 99.6164 15.4512ZM115.781 18.1111C115.781 17.8646 115.719 17.6421 115.596 17.4436C115.473 17.2382 115.237 17.0533 114.887 16.889C114.545 16.7247 114.039 16.5741 113.368 16.4371C112.779 16.307 112.238 16.153 111.745 15.975C111.259 15.7901 110.841 15.5676 110.492 15.3075C110.143 15.0473 109.872 14.7392 109.681 14.3832C109.489 14.0272 109.393 13.6164 109.393 13.1508C109.393 12.699 109.492 12.2711 109.691 11.8671C109.89 11.4632 110.174 11.1072 110.543 10.7991C110.913 10.491 111.362 10.2479 111.889 10.0699C112.423 9.8919 113.018 9.8029 113.676 9.8029C114.607 9.8029 115.404 9.96037 116.069 10.2753C116.739 10.5834 117.253 11.0045 117.609 11.5385C117.965 12.0657 118.143 12.6613 118.143 13.3254H115.668C115.668 13.031 115.593 12.7572 115.442 12.5038C115.298 12.2437 115.079 12.0348 114.785 11.8774C114.49 11.7131 114.121 11.6309 113.676 11.6309C113.251 11.6309 112.899 11.6994 112.618 11.8363C112.344 11.9664 112.139 12.1375 112.002 12.3498C111.872 12.562 111.807 12.7948 111.807 13.0481C111.807 13.233 111.841 13.4007 111.909 13.5513C111.985 13.6951 112.108 13.8286 112.279 13.9519C112.45 14.0683 112.683 14.1778 112.977 14.2805C113.279 14.3832 113.655 14.4825 114.107 14.5783C114.956 14.7563 115.685 14.9857 116.294 15.2664C116.911 15.5402 117.383 15.8963 117.712 16.3344C118.04 16.7658 118.205 17.3135 118.205 17.9776C118.205 18.4705 118.098 18.9224 117.886 19.3332C117.681 19.7371 117.38 20.0897 116.983 20.391C116.585 20.6854 116.11 20.9147 115.555 21.079C115.007 21.2434 114.391 21.3255 113.706 21.3255C112.7 21.3255 111.848 21.1475 111.149 20.7915C110.451 20.4286 109.92 19.9665 109.558 19.4051C109.201 18.8368 109.023 18.248 109.023 17.6387H111.416C111.444 18.0974 111.57 18.4637 111.796 18.7375C112.029 19.0046 112.317 19.1997 112.659 19.3229C113.008 19.4393 113.368 19.4975 113.737 19.4975C114.182 19.4975 114.555 19.4393 114.857 19.3229C115.158 19.1997 115.387 19.0354 115.545 18.83C115.702 18.6177 115.781 18.3781 115.781 18.1111ZM128.433 6.16742V21.1201H125.856V6.16742H128.433ZM134.533 12.7092V14.7529H127.776V12.7092H134.533ZM135.386 6.16742V8.22136H127.776V6.16742H135.386ZM139.843 10.0083V21.1201H137.358V10.0083H139.843ZM137.193 7.09169C137.193 6.71514 137.317 6.40362 137.563 6.15715C137.816 5.90383 138.165 5.77717 138.611 5.77717C139.049 5.77717 139.394 5.90383 139.648 6.15715C139.901 6.40362 140.028 6.71514 140.028 7.09169C140.028 7.4614 139.901 7.7695 139.648 8.01597C139.394 8.26244 139.049 8.38568 138.611 8.38568C138.165 8.38568 137.816 8.26244 137.563 8.01597C137.317 7.7695 137.193 7.4614 137.193 7.09169ZM145.009 12.3806V21.1201H142.534V10.0083H144.865L145.009 12.3806ZM144.567 15.1534L143.766 15.1431C143.773 14.3558 143.882 13.6335 144.095 12.9762C144.314 12.319 144.615 11.7541 144.998 11.2817C145.389 10.8093 145.854 10.4465 146.395 10.1931C146.936 9.93298 147.538 9.8029 148.202 9.8029C148.736 9.8029 149.219 9.87821 149.65 10.0288C150.089 10.1726 150.462 10.4088 150.77 10.7374C151.085 11.0661 151.324 11.494 151.489 12.0212C151.653 12.5415 151.735 13.1816 151.735 13.9416V21.1201H149.25V13.9313C149.25 13.3973 149.171 12.9762 149.014 12.6681C148.863 12.3532 148.641 12.1307 148.346 12.0006C148.059 11.8637 147.699 11.7952 147.268 11.7952C146.843 11.7952 146.463 11.8842 146.128 12.0622C145.792 12.2402 145.508 12.4833 145.276 12.7914C145.05 13.0995 144.875 13.4555 144.752 13.8594C144.629 14.2634 144.567 14.6947 144.567 15.1534ZM160.526 18.8916V13.5924C160.526 13.1953 160.454 12.853 160.31 12.5654C160.167 12.2779 159.948 12.0554 159.653 11.8979C159.366 11.7404 159.003 11.6617 158.565 11.6617C158.161 11.6617 157.811 11.7302 157.517 11.8671C157.223 12.004 156.993 12.1889 156.829 12.4217C156.665 12.6545 156.583 12.918 156.583 13.2124H154.118C154.118 12.7743 154.224 12.3498 154.436 11.939C154.648 11.5282 154.956 11.1619 155.36 10.8401C155.764 10.5184 156.247 10.265 156.808 10.0802C157.37 9.89533 158 9.8029 158.698 9.8029C159.533 9.8029 160.273 9.94325 160.916 10.224C161.567 10.5047 162.077 10.9291 162.447 11.4974C162.823 12.0588 163.011 12.764 163.011 13.613V18.5527C163.011 19.0593 163.046 19.5146 163.114 19.9186C163.189 20.3157 163.295 20.6614 163.432 20.9558V21.1201H160.896C160.779 20.8531 160.687 20.5142 160.619 20.1034C160.557 19.6858 160.526 19.2818 160.526 18.8916ZM160.886 14.3626L160.906 15.8928H159.129C158.671 15.8928 158.267 15.9373 157.918 16.0263C157.568 16.1085 157.277 16.2317 157.045 16.3961C156.812 16.5604 156.637 16.7589 156.521 16.9917C156.405 17.2245 156.346 17.4881 156.346 17.7825C156.346 18.0769 156.415 18.3473 156.552 18.5938C156.689 18.8334 156.887 19.0217 157.147 19.1586C157.414 19.2955 157.736 19.364 158.113 19.364C158.619 19.364 159.061 19.2613 159.437 19.0559C159.821 18.8437 160.122 18.5869 160.341 18.2857C160.56 17.9776 160.677 17.6866 160.69 17.4128L161.491 18.5116C161.409 18.7923 161.269 19.0936 161.07 19.4153C160.872 19.7371 160.612 20.0452 160.29 20.3396C159.975 20.6272 159.595 20.8634 159.15 21.0482C158.712 21.2331 158.205 21.3255 157.63 21.3255C156.904 21.3255 156.257 21.1817 155.689 20.8942C155.121 20.5998 154.676 20.2061 154.354 19.7132C154.032 19.2134 153.871 18.6485 153.871 18.0187C153.871 17.4299 153.981 16.9095 154.2 16.4577C154.426 15.999 154.755 15.6156 155.186 15.3075C155.624 14.9994 156.158 14.7666 156.788 14.6091C157.418 14.4448 158.137 14.3626 158.945 14.3626H160.886ZM168.054 12.3806V21.1201H165.579V10.0083H167.91L168.054 12.3806ZM167.612 15.1534L166.811 15.1431C166.818 14.3558 166.928 13.6335 167.14 12.9762C167.359 12.319 167.66 11.7541 168.044 11.2817C168.434 10.8093 168.899 10.4465 169.44 10.1931C169.981 9.93298 170.584 9.8029 171.248 9.8029C171.782 9.8029 172.264 9.87821 172.696 10.0288C173.134 10.1726 173.507 10.4088 173.815 10.7374C174.13 11.0661 174.37 11.494 174.534 12.0212C174.698 12.5415 174.78 13.1816 174.78 13.9416V21.1201H172.295V13.9313C172.295 13.3973 172.216 12.9762 172.059 12.6681C171.908 12.3532 171.686 12.1307 171.391 12.0006C171.104 11.8637 170.744 11.7952 170.313 11.7952C169.889 11.7952 169.509 11.8842 169.173 12.0622C168.838 12.2402 168.554 12.4833 168.321 12.7914C168.095 13.0995 167.92 13.4555 167.797 13.8594C167.674 14.2634 167.612 14.6947 167.612 15.1534ZM181.846 19.3537C182.25 19.3537 182.613 19.275 182.935 19.1175C183.263 18.9532 183.527 18.7273 183.725 18.4397C183.931 18.1522 184.044 17.8201 184.064 17.4436H186.395C186.382 18.1624 186.17 18.8163 185.759 19.4051C185.348 19.9939 184.804 20.4629 184.126 20.812C183.448 21.1543 182.698 21.3255 181.877 21.3255C181.028 21.3255 180.288 21.1817 179.659 20.8942C179.029 20.5998 178.505 20.1958 178.087 19.6824C177.67 19.1689 177.355 18.5767 177.142 17.9057C176.937 17.2347 176.834 16.5159 176.834 15.7491V15.3896C176.834 14.6228 176.937 13.9039 177.142 13.233C177.355 12.5552 177.67 11.9595 178.087 11.4461C178.505 10.9326 179.029 10.532 179.659 10.2445C180.288 9.9501 181.024 9.8029 181.867 9.8029C182.757 9.8029 183.537 9.98091 184.208 10.3369C184.879 10.6861 185.406 11.1756 185.79 11.8055C186.18 12.4285 186.382 13.1542 186.395 13.9827H184.064C184.044 13.5719 183.941 13.2022 183.756 12.8735C183.578 12.5381 183.325 12.2711 182.996 12.0725C182.674 11.874 182.288 11.7747 181.836 11.7747C181.336 11.7747 180.922 11.8774 180.593 12.0828C180.264 12.2813 180.008 12.5552 179.823 12.9044C179.638 13.2467 179.505 13.6335 179.422 14.0648C179.347 14.4893 179.309 14.9309 179.309 15.3896V15.7491C179.309 16.2078 179.347 16.6528 179.422 17.0841C179.498 17.5154 179.628 17.9023 179.813 18.2446C180.004 18.5801 180.264 18.8505 180.593 19.0559C180.922 19.2545 181.339 19.3537 181.846 19.3537ZM190.945 10.0083V21.1201H188.46V10.0083H190.945ZM188.295 7.09169C188.295 6.71514 188.419 6.40362 188.665 6.15715C188.918 5.90383 189.268 5.77717 189.713 5.77717C190.151 5.77717 190.497 5.90383 190.75 6.15715C191.003 6.40362 191.13 6.71514 191.13 7.09169C191.13 7.4614 191.003 7.7695 190.75 8.01597C190.497 8.26244 190.151 8.38568 189.713 8.38568C189.268 8.38568 188.918 8.26244 188.665 8.01597C188.419 7.7695 188.295 7.4614 188.295 7.09169ZM199.921 18.8916V13.5924C199.921 13.1953 199.849 12.853 199.705 12.5654C199.561 12.2779 199.342 12.0554 199.048 11.8979C198.76 11.7404 198.397 11.6617 197.959 11.6617C197.555 11.6617 197.206 11.7302 196.912 11.8671C196.617 12.004 196.388 12.1889 196.224 12.4217C196.059 12.6545 195.977 12.918 195.977 13.2124H193.512C193.512 12.7743 193.619 12.3498 193.831 11.939C194.043 11.5282 194.351 11.1619 194.755 10.8401C195.159 10.5184 195.642 10.265 196.203 10.0802C196.764 9.89533 197.394 9.8029 198.093 9.8029C198.928 9.8029 199.667 9.94325 200.311 10.224C200.961 10.5047 201.471 10.9291 201.841 11.4974C202.218 12.0588 202.406 12.764 202.406 13.613V18.5527C202.406 19.0593 202.44 19.5146 202.509 19.9186C202.584 20.3157 202.69 20.6614 202.827 20.9558V21.1201H200.29C200.174 20.8531 200.082 20.5142 200.013 20.1034C199.951 19.6858 199.921 19.2818 199.921 18.8916ZM200.28 14.3626L200.301 15.8928H198.524C198.065 15.8928 197.661 15.9373 197.312 16.0263C196.963 16.1085 196.672 16.2317 196.439 16.3961C196.206 16.5604 196.032 16.7589 195.916 16.9917C195.799 17.2245 195.741 17.4881 195.741 17.7825C195.741 18.0769 195.809 18.3473 195.946 18.5938C196.083 18.8334 196.282 19.0217 196.542 19.1586C196.809 19.2955 197.131 19.364 197.507 19.364C198.014 19.364 198.456 19.2613 198.832 19.0559C199.216 18.8437 199.517 18.5869 199.736 18.2857C199.955 17.9776 200.071 17.6866 200.085 17.4128L200.886 18.5116C200.804 18.7923 200.664 19.0936 200.465 19.4153C200.266 19.7371 200.006 20.0452 199.684 20.3396C199.37 20.6272 198.99 20.8634 198.545 21.0482C198.106 21.2331 197.6 21.3255 197.025 21.3255C196.299 21.3255 195.652 21.1817 195.084 20.8942C194.515 20.5998 194.07 20.2061 193.749 19.7132C193.427 19.2134 193.266 18.6485 193.266 18.0187C193.266 17.4299 193.375 16.9095 193.595 16.4577C193.82 15.999 194.149 15.6156 194.58 15.3075C195.019 14.9994 195.553 14.7666 196.183 14.6091C196.812 14.4448 197.531 14.3626 198.339 14.3626H200.28ZM207.644 5.34584V21.1201H205.158V5.34584H207.644ZM67.1282 30.9365V33.3157C67.0398 33.4326 66.9014 33.561 66.7131 33.7008C66.5277 33.8377 66.281 33.9561 65.9729 34.0559C65.6648 34.1558 65.2811 34.2057 64.8218 34.2057C64.431 34.2057 64.073 34.1401 63.7478 34.0089C63.4226 33.8748 63.1416 33.6794 62.9048 33.4226C62.6709 33.1659 62.4897 32.8535 62.3614 32.4855C62.233 32.1147 62.1688 31.6925 62.1688 31.2189V30.7867C62.1688 30.316 62.2273 29.8967 62.3442 29.5287C62.464 29.1579 62.6352 28.8441 62.8577 28.5873C63.0802 28.3306 63.3484 28.1366 63.6622 28.0054C63.9788 27.8713 64.3368 27.8042 64.7362 27.8042C65.2469 27.8042 65.6691 27.8898 66.0028 28.061C66.3394 28.2293 66.599 28.4632 66.7816 28.7628C66.9642 29.0623 67.0797 29.4046 67.1282 29.7897H66.0756C66.0413 29.5729 65.9743 29.3789 65.8744 29.2078C65.7775 29.0366 65.6377 28.9025 65.4551 28.8055C65.2754 28.7057 65.0415 28.6558 64.7533 28.6558C64.5052 28.6558 64.2869 28.7028 64.0986 28.797C63.9104 28.8911 63.7535 29.0295 63.6279 29.2121C63.5053 29.3946 63.4126 29.6171 63.3498 29.8796C63.2871 30.142 63.2557 30.4416 63.2557 30.7782V31.2189C63.2557 31.5612 63.2913 31.8651 63.3626 32.1304C63.4368 32.3957 63.5424 32.6196 63.6793 32.8022C63.8191 32.9847 63.9888 33.1231 64.1885 33.2172C64.3882 33.3085 64.6136 33.3542 64.8646 33.3542C65.1099 33.3542 65.311 33.3342 65.4679 33.2943C65.6248 33.2515 65.7489 33.2015 65.8402 33.1445C65.9344 33.0846 66.0071 33.0275 66.0584 32.9733V31.7367H64.7619V30.9365H67.1282ZM69.3191 29.4902V34.1201H68.2836V29.4902H69.3191ZM68.2151 28.2749C68.2151 28.118 68.2664 27.9882 68.3691 27.8855C68.4747 27.78 68.6202 27.7272 68.8056 27.7272C68.9882 27.7272 69.1322 27.78 69.2378 27.8855C69.3433 27.9882 69.3961 28.118 69.3961 28.2749C69.3961 28.429 69.3433 28.5574 69.2378 28.6601C69.1322 28.7628 68.9882 28.8141 68.8056 28.8141C68.6202 28.8141 68.4747 28.7628 68.3691 28.6601C68.2664 28.5574 68.2151 28.429 68.2151 28.2749ZM71.955 33.3028L73.0889 29.4902H74.1587L72.5498 34.1201H71.8822L71.955 33.3028ZM71.0863 29.4902L72.2417 33.3199L72.2973 34.1201H71.6298L70.0123 29.4902H71.0863ZM75.9003 29.4902V34.1201H74.8647V29.4902H75.9003ZM74.7963 28.2749C74.7963 28.118 74.8476 27.9882 74.9503 27.8855C75.0559 27.78 75.2013 27.7272 75.3868 27.7272C75.5693 27.7272 75.7134 27.78 75.819 27.8855C75.9245 27.9882 75.9773 28.118 75.9773 28.2749C75.9773 28.429 75.9245 28.5574 75.819 28.6601C75.7134 28.7628 75.5693 28.8141 75.3868 28.8141C75.2013 28.8141 75.0559 28.7628 74.9503 28.6601C74.8476 28.5574 74.7963 28.429 74.7963 28.2749ZM78.0526 30.4786V34.1201H77.0214V29.4902H77.9927L78.0526 30.4786ZM77.8686 31.634L77.5348 31.6297C77.5377 31.3017 77.5833 31.0007 77.6718 30.7268C77.7631 30.453 77.8886 30.2176 78.0483 30.0208C78.2109 29.824 78.4049 29.6728 78.6303 29.5672C78.8556 29.4588 79.1067 29.4046 79.3834 29.4046C79.6059 29.4046 79.807 29.436 79.9867 29.4987C80.1693 29.5587 80.3248 29.6571 80.4532 29.794C80.5844 29.9309 80.6842 30.1092 80.7527 30.3289C80.8212 30.5457 80.8554 30.8124 80.8554 31.1291V34.1201H79.8199V31.1248C79.8199 30.9023 79.7871 30.7268 79.7214 30.5985C79.6587 30.4672 79.566 30.3745 79.4433 30.3203C79.3235 30.2633 79.1737 30.2347 78.994 30.2347C78.8171 30.2347 78.6588 30.2718 78.519 30.346C78.3792 30.4202 78.2609 30.5214 78.1639 30.6498C78.0697 30.7782 77.997 30.9265 77.9456 31.0948C77.8943 31.2631 77.8686 31.4429 77.8686 31.634ZM84.8734 29.4902H85.8105V33.9917C85.8105 34.4082 85.7221 34.762 85.5452 35.0529C85.3684 35.3439 85.1216 35.565 84.8049 35.7162C84.4883 35.8702 84.1217 35.9473 83.7052 35.9473C83.5284 35.9473 83.3315 35.9216 83.1147 35.8702C82.9008 35.8189 82.6925 35.7362 82.49 35.6221C82.2903 35.5108 82.1234 35.3639 81.9893 35.1813L82.4729 34.5737C82.6383 34.7705 82.8209 34.9146 83.0206 35.0059C83.2203 35.0972 83.4299 35.1428 83.6496 35.1428C83.8864 35.1428 84.0875 35.0986 84.2529 35.0102C84.4213 34.9246 84.5511 34.7976 84.6423 34.6293C84.7336 34.461 84.7793 34.2556 84.7793 34.0131V30.5386L84.8734 29.4902ZM81.7283 31.8565V31.7666C81.7283 31.4158 81.7711 31.0963 81.8567 30.8081C81.9423 30.5172 82.0649 30.2675 82.2247 30.0593C82.3844 29.8482 82.5784 29.687 82.8066 29.5758C83.0348 29.4617 83.293 29.4046 83.5811 29.4046C83.8807 29.4046 84.136 29.4588 84.3471 29.5672C84.561 29.6756 84.7393 29.8311 84.882 30.0336C85.0246 30.2333 85.1359 30.4729 85.2157 30.7525C85.2985 31.0292 85.3598 31.3373 85.3997 31.6768V31.9635C85.3626 32.2944 85.2999 32.5968 85.2115 32.8706C85.123 33.1445 85.0061 33.3813 84.8606 33.581C84.7151 33.7806 84.5354 33.9347 84.3214 34.0431C84.1103 34.1515 83.8607 34.2057 83.5726 34.2057C83.2902 34.2057 83.0348 34.1472 82.8066 34.0303C82.5813 33.9133 82.3873 33.7493 82.2247 33.5382C82.0649 33.3271 81.9423 33.0789 81.8567 32.7936C81.7711 32.5055 81.7283 32.1931 81.7283 31.8565ZM82.7596 31.7666V31.8565C82.7596 32.0676 82.7795 32.2644 82.8195 32.447C82.8623 32.6296 82.9264 32.7908 83.012 32.9305C83.1005 33.0675 83.2117 33.1759 83.3458 33.2558C83.4827 33.3328 83.6439 33.3713 83.8293 33.3713C84.0718 33.3713 84.2701 33.3199 84.4241 33.2172C84.581 33.1145 84.7008 32.9762 84.7836 32.8022C84.8691 32.6253 84.929 32.4285 84.9633 32.2117V31.4372C84.9462 31.2688 84.9105 31.1119 84.8563 30.9665C84.8049 30.821 84.7351 30.694 84.6466 30.5856C84.5582 30.4744 84.4469 30.3888 84.3129 30.3289C84.1788 30.2661 84.0205 30.2347 83.8379 30.2347C83.6525 30.2347 83.4913 30.2747 83.3543 30.3546C83.2174 30.4344 83.1047 30.5443 83.0163 30.684C82.9307 30.8238 82.8665 30.9864 82.8237 31.1719C82.781 31.3573 82.7596 31.5555 82.7596 31.7666ZM90.1666 29.4902V34.1201H89.1311V29.4902H90.1666ZM89.0626 28.2749C89.0626 28.118 89.1139 27.9882 89.2166 27.8855C89.3222 27.78 89.4677 27.7272 89.6531 27.7272C89.8357 27.7272 89.9797 27.78 90.0853 27.8855C90.1908 27.9882 90.2436 28.118 90.2436 28.2749C90.2436 28.429 90.1908 28.5574 90.0853 28.6601C89.9797 28.7628 89.8357 28.8141 89.6531 28.8141C89.4677 28.8141 89.3222 28.7628 89.2166 28.6601C89.1139 28.5574 89.0626 28.429 89.0626 28.2749ZM93.8936 32.8664C93.8936 32.7637 93.868 32.6709 93.8166 32.5882C93.7653 32.5026 93.6668 32.4256 93.5214 32.3572C93.3787 32.2887 93.1676 32.2259 92.8881 32.1689C92.6427 32.1147 92.4174 32.0505 92.212 31.9763C92.0094 31.8993 91.8354 31.8066 91.6899 31.6982C91.5444 31.5898 91.4318 31.4614 91.3519 31.3131C91.272 31.1647 91.2321 30.9936 91.2321 30.7996C91.2321 30.6113 91.2734 30.433 91.3562 30.2647C91.4389 30.0964 91.5573 29.948 91.7113 29.8197C91.8654 29.6913 92.0522 29.59 92.2719 29.5159C92.4944 29.4417 92.7426 29.4046 93.0164 29.4046C93.4044 29.4046 93.7367 29.4702 94.0135 29.6014C94.293 29.7298 94.507 29.9053 94.6553 30.1278C94.8036 30.3474 94.8778 30.5956 94.8778 30.8723H93.8466C93.8466 30.7497 93.8152 30.6355 93.7524 30.53C93.6925 30.4216 93.6012 30.3346 93.4786 30.269C93.3559 30.2005 93.2019 30.1663 93.0164 30.1663C92.8396 30.1663 92.6927 30.1948 92.5757 30.2519C92.4616 30.3061 92.376 30.3774 92.3189 30.4658C92.2647 30.5542 92.2376 30.6512 92.2376 30.7568C92.2376 30.8338 92.2519 30.9037 92.2804 30.9665C92.3118 31.0264 92.3632 31.082 92.4345 31.1333C92.5058 31.1818 92.6028 31.2275 92.7255 31.2703C92.851 31.3131 93.0079 31.3544 93.1962 31.3944C93.5499 31.4685 93.8537 31.5641 94.1076 31.6811C94.3643 31.7952 94.5612 31.9435 94.6981 32.1261C94.835 32.3058 94.9035 32.534 94.9035 32.8107C94.9035 33.0161 94.8593 33.2044 94.7708 33.3756C94.6853 33.5439 94.5597 33.6908 94.3943 33.8163C94.2288 33.939 94.0306 34.0345 93.7995 34.103C93.5713 34.1715 93.3145 34.2057 93.0293 34.2057C92.6099 34.2057 92.2548 34.1315 91.9638 33.9832C91.6728 33.832 91.4517 33.6394 91.3005 33.4055C91.1522 33.1687 91.078 32.9234 91.078 32.6695H92.075C92.0865 32.8607 92.1392 33.0133 92.2334 33.1274C92.3304 33.2386 92.4502 33.3199 92.5928 33.3713C92.7383 33.4198 92.8881 33.444 93.0421 33.444C93.2275 33.444 93.383 33.4198 93.5085 33.3713C93.634 33.3199 93.7296 33.2515 93.7952 33.1659C93.8608 33.0775 93.8936 32.9776 93.8936 32.8664ZM98.0914 27.8898H100.295C100.769 27.8898 101.172 27.9611 101.506 28.1038C101.84 28.2464 102.095 28.4575 102.272 28.7371C102.452 29.0138 102.542 29.3561 102.542 29.764C102.542 30.075 102.485 30.3489 102.37 30.5856C102.256 30.8224 102.095 31.0221 101.887 31.1847C101.679 31.3444 101.43 31.4685 101.142 31.557L100.817 31.7153H98.8359L98.8274 30.8638H100.312C100.569 30.8638 100.783 30.8181 100.954 30.7268C101.125 30.6355 101.254 30.5115 101.339 30.3546C101.428 30.1948 101.472 30.0151 101.472 29.8154C101.472 29.5986 101.429 29.4103 101.343 29.2506C101.261 29.088 101.132 28.9639 100.958 28.8783C100.784 28.7899 100.563 28.7456 100.295 28.7456H99.1654V34.1201H98.0914V27.8898ZM101.647 34.1201L100.184 31.3216L101.309 31.3173L102.794 34.0645V34.1201H101.647ZM105.55 34.2057C105.207 34.2057 104.898 34.1501 104.621 34.0388C104.347 33.9247 104.113 33.7664 103.919 33.5638C103.728 33.3613 103.581 33.1231 103.479 32.8492C103.376 32.5754 103.325 32.2801 103.325 31.9635V31.7923C103.325 31.43 103.377 31.102 103.483 30.8081C103.589 30.5143 103.735 30.2633 103.924 30.055C104.112 29.8439 104.335 29.6827 104.591 29.5715C104.848 29.4602 105.126 29.4046 105.426 29.4046C105.757 29.4046 106.046 29.4602 106.294 29.5715C106.542 29.6827 106.748 29.8396 106.91 30.0422C107.076 30.2419 107.199 30.4801 107.278 30.7568C107.361 31.0335 107.403 31.3387 107.403 31.6725V32.1132H103.825V31.373H106.384V31.2917C106.378 31.1062 106.341 30.9322 106.273 30.7696C106.207 30.607 106.106 30.4758 105.969 30.376C105.832 30.2761 105.65 30.2262 105.421 30.2262C105.25 30.2262 105.098 30.2633 104.964 30.3374C104.832 30.4088 104.722 30.5129 104.634 30.6498C104.546 30.7867 104.477 30.9522 104.429 31.1462C104.383 31.3373 104.36 31.5527 104.36 31.7923V31.9635C104.36 32.166 104.387 32.3543 104.441 32.5283C104.499 32.6995 104.581 32.8492 104.69 32.9776C104.798 33.106 104.929 33.2073 105.083 33.2814C105.237 33.3527 105.413 33.3884 105.61 33.3884C105.858 33.3884 106.079 33.3385 106.273 33.2386C106.467 33.1388 106.635 32.9976 106.778 32.815L107.321 33.3413C107.221 33.4868 107.092 33.6266 106.932 33.7607C106.772 33.8919 106.577 33.9989 106.346 34.0816C106.117 34.1643 105.852 34.2057 105.55 34.2057ZM110.098 33.3841C110.267 33.3841 110.418 33.3513 110.552 33.2857C110.689 33.2172 110.799 33.1231 110.881 33.0033C110.967 32.8835 111.014 32.7451 111.023 32.5882H111.994C111.988 32.8878 111.9 33.1602 111.729 33.4055C111.558 33.6508 111.331 33.8463 111.048 33.9917C110.766 34.1344 110.454 34.2057 110.111 34.2057C109.757 34.2057 109.449 34.1458 109.187 34.026C108.924 33.9033 108.706 33.735 108.532 33.5211C108.358 33.3071 108.227 33.0603 108.139 32.7808C108.053 32.5012 108.01 32.2017 108.01 31.8822V31.7324C108.01 31.4129 108.053 31.1134 108.139 30.8338C108.227 30.5514 108.358 30.3032 108.532 30.0893C108.706 29.8753 108.924 29.7084 109.187 29.5886C109.449 29.4659 109.756 29.4046 110.107 29.4046C110.478 29.4046 110.803 29.4788 111.083 29.6271C111.362 29.7726 111.582 29.9766 111.742 30.239C111.904 30.4986 111.988 30.801 111.994 31.1462H111.023C111.014 30.975 110.971 30.821 110.894 30.684C110.82 30.5443 110.715 30.433 110.578 30.3503C110.444 30.2675 110.282 30.2262 110.094 30.2262C109.886 30.2262 109.713 30.269 109.576 30.3546C109.439 30.4373 109.332 30.5514 109.255 30.6969C109.178 30.8395 109.123 31.0007 109.089 31.1804C109.057 31.3573 109.041 31.5413 109.041 31.7324V31.8822C109.041 32.0733 109.057 32.2587 109.089 32.4385C109.12 32.6182 109.174 32.7793 109.251 32.922C109.331 33.0618 109.439 33.1744 109.576 33.26C109.713 33.3428 109.887 33.3841 110.098 33.3841ZM114.827 34.2057C114.484 34.2057 114.175 34.1501 113.898 34.0388C113.624 33.9247 113.39 33.7664 113.196 33.5638C113.005 33.3613 112.858 33.1231 112.756 32.8492C112.653 32.5754 112.602 32.2801 112.602 31.9635V31.7923C112.602 31.43 112.654 31.102 112.76 30.8081C112.865 30.5143 113.012 30.2633 113.201 30.055C113.389 29.8439 113.611 29.6827 113.868 29.5715C114.125 29.4602 114.403 29.4046 114.703 29.4046C115.034 29.4046 115.323 29.4602 115.571 29.5715C115.819 29.6827 116.025 29.8396 116.187 30.0422C116.353 30.2419 116.476 30.4801 116.555 30.7568C116.638 31.0335 116.68 31.3387 116.68 31.6725V32.1132H113.102V31.373H115.661V31.2917C115.655 31.1062 115.618 30.9322 115.55 30.7696C115.484 30.607 115.383 30.4758 115.246 30.376C115.109 30.2761 114.927 30.2262 114.698 30.2262C114.527 30.2262 114.375 30.2633 114.24 30.3374C114.109 30.4088 113.999 30.5129 113.911 30.6498C113.823 30.7867 113.754 30.9522 113.706 31.1462C113.66 31.3373 113.637 31.5527 113.637 31.7923V31.9635C113.637 32.166 113.664 32.3543 113.718 32.5283C113.776 32.6995 113.858 32.8492 113.967 32.9776C114.075 33.106 114.206 33.2073 114.36 33.2814C114.514 33.3527 114.69 33.3884 114.887 33.3884C115.135 33.3884 115.356 33.3385 115.55 33.2386C115.744 33.1388 115.912 32.9976 116.055 32.815L116.598 33.3413C116.498 33.4868 116.369 33.6266 116.209 33.7607C116.049 33.8919 115.854 33.9989 115.623 34.0816C115.394 34.1643 115.129 34.2057 114.827 34.2057ZM118.588 29.4902V34.1201H117.552V29.4902H118.588ZM117.484 28.2749C117.484 28.118 117.535 27.9882 117.638 27.8855C117.744 27.78 117.889 27.7272 118.075 27.7272C118.257 27.7272 118.401 27.78 118.507 27.8855C118.612 27.9882 118.665 28.118 118.665 28.2749C118.665 28.429 118.612 28.5574 118.507 28.6601C118.401 28.7628 118.257 28.8141 118.075 28.8141C117.889 28.8141 117.744 28.7628 117.638 28.6601C117.535 28.5574 117.484 28.429 117.484 28.2749ZM121.224 33.3028L122.358 29.4902H123.428L121.819 34.1201H121.151L121.224 33.3028ZM120.355 29.4902L121.511 33.3199L121.566 34.1201H120.899L119.281 29.4902H120.355ZM125.169 29.4902V34.1201H124.134V29.4902H125.169ZM124.065 28.2749C124.065 28.118 124.117 27.9882 124.219 27.8855C124.325 27.78 124.47 27.7272 124.656 27.7272C124.838 27.7272 124.982 27.78 125.088 27.8855C125.193 27.9882 125.246 28.118 125.246 28.2749C125.246 28.429 125.193 28.5574 125.088 28.6601C124.982 28.7628 124.838 28.8141 124.656 28.8141C124.47 28.8141 124.325 28.7628 124.219 28.6601C124.117 28.5574 124.065 28.429 124.065 28.2749ZM127.322 30.4786V34.1201H126.29V29.4902H127.262L127.322 30.4786ZM127.138 31.634L126.804 31.6297C126.807 31.3017 126.852 31.0007 126.941 30.7268C127.032 30.453 127.158 30.2176 127.317 30.0208C127.48 29.824 127.674 29.6728 127.899 29.5672C128.125 29.4588 128.376 29.4046 128.652 29.4046C128.875 29.4046 129.076 29.436 129.256 29.4987C129.438 29.5587 129.594 29.6571 129.722 29.794C129.853 29.9309 129.953 30.1092 130.022 30.3289C130.09 30.5457 130.124 30.8124 130.124 31.1291V34.1201H129.089V31.1248C129.089 30.9023 129.056 30.7268 128.99 30.5985C128.928 30.4672 128.835 30.3745 128.712 30.3203C128.592 30.2633 128.443 30.2347 128.263 30.2347C128.086 30.2347 127.928 30.2718 127.788 30.346C127.648 30.4202 127.53 30.5214 127.433 30.6498C127.339 30.7782 127.266 30.9265 127.215 31.0948C127.163 31.2631 127.138 31.4429 127.138 31.634ZM134.142 29.4902H135.079V33.9917C135.079 34.4082 134.991 34.762 134.814 35.0529C134.637 35.3439 134.391 35.565 134.074 35.7162C133.757 35.8702 133.391 35.9473 132.974 35.9473C132.797 35.9473 132.6 35.9216 132.384 35.8702C132.17 35.8189 131.961 35.7362 131.759 35.6221C131.559 35.5108 131.392 35.3639 131.258 35.1813L131.742 34.5737C131.907 34.7705 132.09 34.9146 132.29 35.0059C132.489 35.0972 132.699 35.1428 132.919 35.1428C133.155 35.1428 133.356 35.0986 133.522 35.0102C133.69 34.9246 133.82 34.7976 133.911 34.6293C134.003 34.461 134.048 34.2556 134.048 34.0131V30.5386L134.142 29.4902ZM130.997 31.8565V31.7666C130.997 31.4158 131.04 31.0963 131.126 30.8081C131.211 30.5172 131.334 30.2675 131.494 30.0593C131.653 29.8482 131.847 29.687 132.076 29.5758C132.304 29.4617 132.562 29.4046 132.85 29.4046C133.15 29.4046 133.405 29.4588 133.616 29.5672C133.83 29.6756 134.008 29.8311 134.151 30.0336C134.294 30.2333 134.405 30.4729 134.485 30.7525C134.567 31.0292 134.629 31.3373 134.669 31.6768V31.9635C134.632 32.2944 134.569 32.5968 134.48 32.8706C134.392 33.1445 134.275 33.3813 134.13 33.581C133.984 33.7806 133.804 33.9347 133.59 34.0431C133.379 34.1515 133.13 34.2057 132.842 34.2057C132.559 34.2057 132.304 34.1472 132.076 34.0303C131.85 33.9133 131.656 33.7493 131.494 33.5382C131.334 33.3271 131.211 33.0789 131.126 32.7936C131.04 32.5055 130.997 32.1931 130.997 31.8565ZM132.028 31.7666V31.8565C132.028 32.0676 132.048 32.2644 132.088 32.447C132.131 32.6296 132.195 32.7908 132.281 32.9305C132.369 33.0675 132.481 33.1759 132.615 33.2558C132.752 33.3328 132.913 33.3713 133.098 33.3713C133.341 33.3713 133.539 33.3199 133.693 33.2172C133.85 33.1145 133.97 32.9762 134.052 32.8022C134.138 32.6253 134.198 32.4285 134.232 32.2117V31.4372C134.215 31.2688 134.179 31.1119 134.125 30.9665C134.074 30.821 134.004 30.694 133.916 30.5856C133.827 30.4744 133.716 30.3888 133.582 30.3289C133.448 30.2661 133.289 30.2347 133.107 30.2347C132.921 30.2347 132.76 30.2747 132.623 30.3546C132.486 30.4344 132.374 30.5443 132.285 30.684C132.2 30.8238 132.135 30.9864 132.093 31.1719C132.05 31.3573 132.028 31.5555 132.028 31.7666Z" fill="#064068"/>
</svg>